<svg xmlns="http://www.w3.org/2000/svg" viewBox="0 0 2400 500" fill-rule="evenodd" fill="currentColor">
  <g fill="var(--brand-color, #DF9E3A)">
    <path
      d="M2065.08 56.94c0-9.98 3.79-19.07 10.83-26.12a36.315 36.315 0 0126.11-10.81c9.81-.07 19.23 3.83 26.11 10.81a36.316 36.316 0 0110.83 26.12c0 9.97-3.77 19.06-10.83 26.12a36.315 36.315 0 01-26.11 10.81c-9.81.06-19.22-3.84-26.11-10.81a36.398 36.398 0 01-10.83-26.12zm4.87 0c0-8.66 3.26-16.57 9.38-22.69a31.546 31.546 0 0122.69-9.4c8.68 0 16.57 3.27 22.69 9.4 6.14 6.12 9.4 14.03 9.4 22.69s-3.26 16.56-9.4 22.69a31.546 31.546 0 01-22.69 9.4c-8.52.05-16.7-3.34-22.69-9.4a31.527 31.527 0 01-9.38-22.69zm26.13-3.1h7.63a3.764 3.764 0 003.73-3.8c0-.09 0-.17-.01-.26a3.743 3.743 0 00-3.73-3.42h-7.61v7.48h-.01zm-.08 22.69h-12.15v-39.2h23.65c2.7-.01 5.16.67 7.46 2.1a9.62 9.62 0 014.69 7.02c.55 3.44-.52 6.81-2.92 9.33a8.029 8.029 0 01-3.99 2.33c2.74.66 4.82 2.78 5.46 5.53.22.98.35 1.88.44 2.89.21 2.74.44 5.22.68 7.96.07.77.39 1.5.92 2.06h-12.21c-.54-.8-.86-1.73-.94-2.7-.29-2.43-.52-4.86-.71-7.3-.06-1-.51-1.94-1.25-2.62a3.871 3.871 0 00-2.67-1.08h-6.44v13.68h-.01zM283.4 483.19c25.85-64.72 51.7-129.43 77.54-194.15 1.75-4.85 5.67-8.42 10.66-9.71a15.32 15.32 0 0114.02 3.33c8.42 7.34 16.84 14.69 25.27 22.03.89.61 2.54 1.56 4.8 1.89.84.12 2.76.39 4.42-.31 2.68-1.13 4.3-4.66 4.23-8.75-3.21-48.25-6.54-92.07-10.64-140.24a9.842 9.842 0 00-6.56-7.58 9.809 9.809 0 00-9.81 2.03L292.2 249.01a6.432 6.432 0 00-.41 9.08c1.42 1.56 5.62 2.03 5.62 2.03l31.07.71c6.43 0 12.47 3.07 16.25 8.27a20.124 20.124 0 013.03 17.99L270.18 483.2h-10.59c42.61-110.16 73.62-190.71 75.16-195.07.33-.93 1.15-3.32.64-6.24-.28-1.6-.9-3.14-1.85-4.53-2.14-3.2-5.75-5.1-9.6-5.06l-33.11-.52a15.954 15.954 0 01-14.27-10.17c-2.32-5.93-.9-12.67 3.62-17.16l111.31-104.06c5.46-5.62 13.7-7.52 21.07-4.87a19.929 19.929 0 0113.17 17.15c3.31 51.83 6.8 98.9 11.2 150.65a17.16 17.16 0 01-7.95 16.84 17.165 17.165 0 01-18.61-.25 181.561 181.561 0 01-27.92-24.24c-3.05-3.38-8.26-3.66-11.65-.61L295.26 483.2H283.4zM615.65 396.16c6.72 9.67 17.92 14.79 32.37 14.79s29.63-5.12 43.86-14.79c12.84-8.68 24.1-19.48 33.32-31.94 19.07-26.35 29.38-52.94 30.75-79.31.51-12.45-2.28-22.86-8.54-31.94-6.8-9.58-18.01-14.63-32.44-14.62-14.44 0-29.57 5.07-43.79 14.67a137.214 137.214 0 00-33.32 31.94c-19.62 26.26-30.08 53.09-30.94 79.37-.49 12.43 2.35 22.84 8.73 31.83zm-190.41 90.55L601.02 33.54h130.24l-59.57 153.58c46.66-26.55 93.94-38.62 138-35.21 47.22 3.37 79.09 30.13 85.58 71.87 10.54 63.8-18.81 138.56-79.32 202.07-39.45 41.85-91.97 68.94-142.55 73.54-47.18 3.82-84.91-10.3-107.32-40.16l-10.66 27.47H425.26v.01zM842.43 486.71L1018.2 33.54h135.48L977.9 486.71H842.43zM1489.99 164.47l-125.01 322.25h-127.56l12.1-31.19c-17.4 13.29-35.18 22.84-54.81 29.52-45.4 14.82-86.95 15.39-121.69 1.67-39.51-15.56-53.56-57.81-34.79-104.63l84.41-217.61h132.95L1181 356.75c-5 13.26-4.5 25.3 1.43 34.74 5.95 9.45 16.27 14.62 29.81 14.98 13.83.15 28.52-4.82 42.08-14.31s23.61-21.79 28.83-35.27l74.63-192.42h132.19zM1505.16 164.47h119.15l-12.93 35.75c47.28-37.84 101.85-55.11 147.74-46.77 29.4 4.91 49.7 22.17 57.83 49.17 20.47-17.18 41.6-29.6 64.93-38.15 40.2-14.79 77.2-16.89 109.54-6.21 41.6 14.13 57.5 59.45 38.61 109.99l-79.1 218.48h-122.51l69.31-191.42c4.85-13.52 4.32-25.82-1.47-35.36-5.77-9.53-15.82-14.61-28.83-14.58-12.62.2-25.8 5.22-38.01 14.43-12.23 9.21-21.29 21.02-26.22 34.08l-69.82 192.86h-126l69.59-192.28c5.16-13.9 4.62-26.59-1.53-36.23-6.16-9.64-16.82-14.48-30.42-13.81-12.49.62-25.34 5.8-37.19 14.98-11.84 9.17-20.65 20.74-25.43 33.51l-70.16 193.82H1388.5l116.67-322.25z" />
  </g>
</svg>