<svg version="1.1" xmlns="http://www.w3.org/2000/svg" viewBox="0 0 143 28" fill-rule="evenodd" clip-rule="evenodd">
	<g style="fill: var(--brand-color, #DF9E3A);">
		<path d="M103.6,6.6c0-0.3,0.1-0.6,0.4-0.8c0.2-0.2,0.6-0.3,0.9-0.3c0.3,0,0.7,0.1,0.9,0.3c0.2,0.2,0.4,0.5,0.4,0.8
		c0,0.3-0.1,0.6-0.4,0.8c-0.2,0.2-0.6,0.3-0.9,0.3c-0.3,0-0.7-0.1-0.9-0.3C103.7,7.2,103.6,6.9,103.6,6.6z M103.7,6.6
		c0-0.3,0.1-0.5,0.3-0.7c0.2-0.2,0.5-0.3,0.8-0.3c0.3,0,0.6,0.1,0.8,0.3c0.2,0.2,0.3,0.4,0.3,0.7c0,0.3-0.1,0.5-0.3,0.7
		c-0.2,0.2-0.5,0.3-0.8,0.3c-0.3,0-0.6-0.1-0.8-0.3C103.8,7.1,103.7,6.8,103.7,6.6z M104.6,6.5h0.3c0.1,0,0.1-0.1,0.1-0.1
		c0,0,0,0,0,0c0-0.1-0.1-0.1-0.1-0.1h-0.3L104.6,6.5L104.6,6.5z M104.6,7.2h-0.4V6h0.8c0.1,0,0.2,0,0.3,0.1c0.1,0,0.1,0.1,0.2,0.2
		c0,0.1,0,0.2-0.1,0.3c0,0-0.1,0.1-0.1,0.1c0.1,0,0.2,0.1,0.2,0.2c0,0,0,0.1,0,0.1c0,0.1,0,0.2,0,0.3c0,0,0,0,0,0.1H105
		c0,0,0-0.1,0-0.1c0-0.1,0-0.2,0-0.2c0,0,0-0.1,0-0.1c0,0-0.1,0-0.1,0l-0.2,0L104.6,7.2L104.6,7.2z M42.1,20.2l2.7-6.2
		c0.1-0.2,0.2-0.3,0.4-0.3c0.2,0,0.4,0,0.5,0.1c0.3,0.2,0.6,0.5,0.9,0.7c0.1,0.1,0.2,0.1,0.3,0c0.1-0.1,0.2-0.2,0.1-0.3
		c-0.1-1.5-0.2-2.9-0.4-4.5c0-0.1-0.1-0.2-0.2-0.2c-0.1,0-0.2,0-0.3,0.1l-3.6,3.1c-0.1,0.1-0.1,0.2,0,0.3c0,0,0.1,0.1,0.2,0.1
		c0.4,0,0.7,0,1.1,0c0.2,0,0.4,0.1,0.6,0.3c0.1,0.2,0.2,0.4,0.1,0.6l-2.7,6.2l-0.4,0l2.6-6.3c0-0.1,0-0.2,0-0.3
		c-0.1-0.1-0.2-0.2-0.3-0.2c-0.4,0-0.8,0-1.1,0c-0.2,0-0.4-0.1-0.5-0.3c-0.1-0.2,0-0.4,0.1-0.5l3.8-3.3C46,9.1,46.3,9,46.5,9.1
		c0.3,0.1,0.4,0.3,0.5,0.5c0.1,1.7,0.2,3.2,0.4,4.8c0,0.2-0.1,0.4-0.3,0.5c-0.2,0.1-0.4,0.1-0.6,0c-0.3-0.2-0.7-0.5-1-0.8
		c-0.1-0.1-0.3-0.1-0.4,0c0,0,0,0-0.1,0.1c-1,1.9-1.8,3.9-2.5,5.9L42.1,20.2L42.1,20.2z M53.5,17.4c0.2,0.3,0.6,0.5,1.1,0.5
		c0.5,0,1-0.2,1.5-0.5c0.4-0.3,0.8-0.6,1.2-1c0.7-0.8,1-1.7,1.1-2.5c0-0.4-0.1-0.7-0.3-1c-0.2-0.3-0.6-0.5-1.1-0.5
		c-0.5,0-1,0.2-1.5,0.5c-0.4,0.3-0.8,0.6-1.2,1c-0.7,0.8-1,1.7-1.1,2.5C53.2,16.8,53.3,17.1,53.5,17.4z M46.9,20.3L53,5.8h4.5
		l-2.1,4.9c1.6-0.8,3.2-1.2,4.8-1.1c1.6,0.1,2.7,1,3,2.3c0.4,2-0.6,4.4-2.7,6.4c-1.4,1.3-3.2,2.2-4.9,2.3c-1.6,0.1-2.9-0.3-3.7-1.3
		l-0.4,0.9L46.9,20.3L46.9,20.3L46.9,20.3z M61.4,20.3l6.1-14.5h4.7L66,20.3H61.4z M83.7,10l-4.3,10.3H75l0.4-1
		c-0.6,0.4-1.2,0.7-1.9,0.9c-1.6,0.5-3,0.5-4.2,0.1c-1.4-0.5-1.8-1.8-1.2-3.3L71,10h4.6L73,16.1c-0.2,0.4-0.2,0.8,0,1.1
		c0.2,0.3,0.6,0.5,1,0.5c0.5,0,1-0.2,1.5-0.5c0.5-0.3,0.8-0.7,1-1.1l2.6-6.1L83.7,10L83.7,10z M84.2,10h4.1l-0.4,1.1
		c1.6-1.2,3.5-1.8,5.1-1.5c1,0.2,1.7,0.7,2,1.6c0.7-0.5,1.4-0.9,2.2-1.2c1.4-0.5,2.7-0.5,3.8-0.2c1.4,0.5,2,1.9,1.3,3.5l-2.7,7h-4.2
		l2.4-6.1c0.2-0.4,0.1-0.8-0.1-1.1c-0.2-0.3-0.5-0.5-1-0.5c-0.4,0-0.9,0.2-1.3,0.5c-0.4,0.3-0.7,0.7-0.9,1.1l-2.4,6.2h-4.3l2.4-6.1
		c0.2-0.4,0.2-0.8-0.1-1.2c-0.2-0.3-0.6-0.5-1.1-0.4c-0.4,0-0.9,0.2-1.3,0.5c-0.4,0.3-0.7,0.7-0.9,1.1l-2.4,6.2h-4.3L84.2,10
		L84.2,10z" />
	</g>
</svg>