<svg xmlns="http://www.w3.org/2000/svg" viewBox="0 0 2400 500" fill="currentColor">
  <path
    d="M1486.65 177.27L1554.29 0l54.53 99.64-29.88 77.64h-92.29zm-201.5 0L1352.79 0l54.54 99.64-29.88 77.64h-92.3zm100.75 0L1453.53 0c18.18 33.21 36.36 66.42 54.55 99.64l-29.88 77.64h-92.3z"
    fill="var(--brand-color, #ED1C24)" />
  <path
    d="M1839.41 251.37v109.77h-73.03V194.33h107.52c78.48 0 142.69 61.22 142.69 140.37s-64.55 140.43-142.69 140.43h-107.52V370.55h73.03v47.01h19.58c54.11 0 84.28-38.79 84.58-83.66.38-58.24-50.08-82.52-85.35-82.53h-18.81zM781.25 480c-67.64 0-124.42-46.54-140.06-109.36h74.85c12.49 23.22 37 39 65.2 39s52.72-15.78 65.2-39h74.85C905.65 433.45 848.89 480 781.24 480zM638.98 360.07c-1.35-7.94-2.07-16.1-2.07-24.41 0-79.71 64.63-144.34 144.34-144.34s144.33 64.63 144.33 144.34c0 8.31-.72 16.47-2.07 24.41h-72.4a74.136 74.136 0 004.12-24.41c0-40.86-33.13-73.99-73.98-73.99s-73.99 33.13-73.99 73.99c0 8.56 1.46 16.77 4.13 24.41h-72.41zm698.76.11l-20.06-79.13h-.7l-26.75 79.13h-76.25l63.77-165.85h76.64l59.37 165.85h-76.02zm79.87 10.23l39.46 104.73H1380l-19.09-48.79h-94.27l-19.36 48.79h-77.48l40.26-104.73h207.56zm-395.74-10.23L913.78 194.33h87.52l60.41 101.85 60.52-101.85h87.55L1101.7 360.18h-79.83zm76.89 10.23v104.73h-74.29V370.41h74.29zM505.09 475.13h-128.8v-280.8h120.6c48.5 0 87.33 26.66 87.33 75.26 0 41.59-23.42 52.15-32.42 56.51 23.15 3.89 37.56 14.12 48.15 34.08H450.03v60.12c34.42 0 81.94 2.73 83-30.85.25-8.16-2.35-14.56-5.93-19.06h76.45c19.09 70.21-33.49 104.73-98.46 104.73zm-55.27-223.66v55.83c28.26.49 68.19 2.28 68.19-29.11s-38.87-27.19-68.19-26.72zm1203.82 118.94l80.28 104.73h-90.91l-66.79-104.73h77.42zm-80.54-118.94v68.13c24.43 0 58.32-1.89 58.32-35.38s-33.93-32.75-58.32-32.75zm.25 118.94v104.73h-73V370.41h73zm72.54-10.19l-145.55-.04V194.33h109.15c55.29 0 96.05 27.02 96.05 86.36 0 38.9-19.97 72.36-59.65 79.53z" />
</svg>