<svg xmlns="http://www.w3.org/2000/svg" viewBox="0 0 2400 500" fill="currentColor">
  <g fill="var(--brand-color, #D30E21)">
    <path
      d="M717.35 50h1337.28v135.89H717.35zM331.99 268.82H594.7v34.14H455.33v39.03H594.7v34.84H456.03v39.02H594.7V450H331.99V268.82z" />
  </g>
  <path
    d="M2007.25 268.82c26.48 0 47.39 26.48 47.39 52.96s-21.6 52.96-47.39 52.96h-21.6l80.84 68.99s8.36 6.27-.7 6.27h-85.71c-3.48 0-5.57-2.09-9.06-4.88 2.79 2.09-80.84-70.38-80.84-70.38V450h-78.75V324.56c0-30.66 24.39-55.05 55.05-55.05h140.77v-.7zm-11.15 75.95c8.36 0 20.21-8.36 20.21-23 0-16.03-11.15-23-20.21-23h-105.92v45.99h105.92zM717.35 323.87v125.44h238.33v-26.48c0-2.79-1.39-3.48-3.48-3.48H796.1v-44.6h135.19v-26.48c0-2.09-1.39-3.48-3.48-3.48H796.1V298.8h159.58v-26.48c0-2.09-1.39-3.48-3.48-3.48H772.41c-30.66 0-55.05 25.09-55.05 55.05M1042.79 268.82h181.88c2.09 0 3.48.7 3.48 3.48v26.48h-161.67v117.77h130.31v-41.81h-80.84v-26.48c0-2.09 1.39-3.48 3.48-3.48h104.53c2.09 0 3.48 1.39 3.48 3.48V450H987.02V324.56c.7-30.66 25.09-55.75 55.75-55.75M1319.44 268.82h181.88c2.09 0 3.48.7 3.48 3.48v26.48h-161.67v117.77h130.31v-41.81h-80.84v-26.48c0-2.09 1.39-3.48 3.48-3.48h104.53c2.09 0 3.48 1.39 3.48 3.48V450h-239.72V324.56c0-30.66 24.39-55.75 55.05-55.75M1541.05 323.87v125.44h238.33v-26.48c0-2.79-1.39-3.48-3.48-3.48h-156.1v-44.6h135.19v-26.48c0-2.09-1.39-3.48-3.48-3.48H1620.5V298.8h159.58v-26.48c0-2.09-1.39-3.48-3.48-3.48h-180.49c-29.97 0-55.05 25.09-55.05 55.05" />
</svg>