<svg xmlns="http://www.w3.org/2000/svg" width="24" height="24" fill="none" viewBox="0 0 24 24">
  <path stroke="currentColor" stroke-linecap="round" stroke-linejoin="round"
    d="M14.126 11.881v1.118c0 .571-.952 1.034-2.126 1.034S9.875 13.57 9.875 13v-1.118m4.25 0c0 .571-.951 1.034-2.125 1.034s-2.125-.463-2.125-1.034m4.25 0c0-.571-.951-1.034-2.125-1.034s-2.125.463-2.125 1.034m4.25 0 3 1.498m-7.25-1.498-3 1.498m10.25 2.334L12 18.273m5.125-2.56v-2.334m0 2.334 5.125-2.56v-2.334M12 18.273V15.94m0 2.333-5.125-2.56m10.25-2.333L12 15.94m5.125-2.56 5.125-2.56M12 15.94l-5.125-2.56m0 0v2.334m0-2.334L1.75 10.82m5.125 4.894-5.125-2.56V10.82M9 9.32v1.119c0 .57-.951 1.034-2.125 1.034S4.75 11.01 4.75 10.44V9.32m4.25 0c0 .572-.951 1.035-2.125 1.035S4.75 9.893 4.75 9.32m4.25 0c0-.57-.951-1.034-2.125-1.034S4.75 8.75 4.75 9.321m4.25 0 3 1.499 3-1.499m-10.25 0-3 1.499m17.5-1.499v1.119c0 .57-.951 1.034-2.125 1.034s-2.126-.463-2.126-1.034V9.32m4.251 0c0 .571-.951 1.034-2.125 1.034s-2.126-.462-2.126-1.034m4.251 0c0-.57-.951-1.034-2.125-1.034s-2.126.463-2.126 1.034m4.251 0 3 1.498m-8.124-4.057V7.88c0 .571-.952 1.034-2.126 1.034S9.875 8.451 9.875 7.88V6.762m4.25 0c0 .57-.951 1.034-2.125 1.034s-2.125-.463-2.125-1.034m4.25 0c0-.571-.951-1.034-2.125-1.034s-2.125.463-2.125 1.034m4.25 0 3 1.498m-7.25-1.498-3 1.498" />
</svg>