<svg xmlns="http://www.w3.org/2000/svg" width="24" height="24" fill="none" viewBox="0 0 24 24">
  <path stroke="currentColor" stroke-linecap="round" stroke-linejoin="round"
    d="M19.733 15.73V8.27c.01-.16-.005-.321-.045-.477a.652.652 0 0 0-.101-.173 1.566 1.566 0 0 0-.395-.274l-6.668-3.75a1.573 1.573 0 0 0-.437-.197.627.627 0 0 0-.174 0 1.573 1.573 0 0 0-.438.197l-6.668 3.75c-.145.07-.278.163-.394.274a.652.652 0 0 0-.102.173 1.56 1.56 0 0 0-.045.477v7.46c-.01.16.006.322.045.478a.65.65 0 0 0 .102.172c.116.111.25.204.394.274l6.668 3.75c.135.088.283.154.438.197a.627.627 0 0 0 .174 0c.155-.043.303-.109.438-.196l6.667-3.751a1.56 1.56 0 0 0 .395-.274.65.65 0 0 0 .1-.172 1.54 1.54 0 0 0 .046-.478Z" />
  <path stroke="currentColor" stroke-linecap="round" stroke-linejoin="round"
    d="M19.645 7.698 12.073 12 4.354 7.698M12.072 12 12 20.604" />
</svg>