<svg version="1.1" xmlns="http://www.w3.org/2000/svg" viewBox="0 0 143 28">
	<g style="fill: var(--brand-color, #D30E21);">
		<rect x="54.8" y="4.6" class="st0" width="52.1" height="5.3" />
		<polygon
			points="39.8,13.1 50,13.1 50,14.4 44.6,14.4 44.6,15.9 50,15.9 50,17.3 44.6,17.3 44.6,18.8 50,18.8 50,20.1 39.8,20.1" />
	</g>
	<g style="fill: var(--brand-color, #000);">
		<path
			d="M54.8,15.2v4.9h9.3c0,0,0-1,0-1C64.1,19,64,19,64,19c-0.1,0-6.1,0-6.1,0v-1.7h5.3v-1c0-0.1-0.1-0.1-0.1-0.1h-5.1v-1.8h6.2 v-1c0-0.1-0.1-0.1-0.1-0.1h-7C55.8,13.1,54.8,14.1,54.8,15.2" />
		<path
			d="M67.5,13.1h7.1c0.1,0,0.1,0,0.1,0.1v1h-6.3v4.6h5.1v-1.6h-3.2v-1c0-0.1,0.1-0.1,0.1-0.1c0.8,0,4,0,4.1,0 c0.1,0,0.1,0.1,0.1,0.1v4h-9.4v-4.9C65.3,14.1,66.3,13.1,67.5,13.1" />
		<path
			d="M78.3,13.1h7.1c0.1,0,0.1,0,0.1,0.1v1h-6.3v4.6h5.1v-1.6h-3.2c0,0,0-1,0-1c0-0.1,0.1-0.1,0.1-0.1c0.8,0,4,0,4.1,0 c0.1,0,0.1,0.1,0.1,0.1v4h-9.3v-4.9C76.1,14.1,77.1,13.1,78.3,13.1" />
		<path
			d="M86.9,15.2v4.9h9.3v-1c0-0.1-0.1-0.1-0.1-0.1S90,19,90,19v-1.7h5.3v-1c0-0.1-0.1-0.1-0.1-0.1H90v-1.8h6.2v-1 c0-0.1-0.1-0.1-0.1-0.1h-7C87.9,13.1,86.9,14.1,86.9,15.2" />
		<path
			d="M105.1,13.1c1,0,1.8,1,1.8,2.1c0,1-0.8,2.1-1.8,2.1h-0.8l3.2,2.7c0,0,0.3,0.2,0,0.2H104c-0.1,0-0.2-0.1-0.4-0.2 c0.1,0.1-3.2-2.7-3.2-2.7v2.9h-3.1v-4.9c0-1.2,1-2.1,2.1-2.1L105.1,13.1L105.1,13.1z M104.6,16c0.3,0,0.8-0.3,0.8-0.9 c0-0.6-0.4-0.9-0.8-0.9h-4.1V16L104.6,16L104.6,16z" />
	</g>
</svg>