<svg xmlns="http://www.w3.org/2000/svg" viewBox="0 0 33.02 33.11">
  <path transform="rotate(-45 16.516 16.599)" fill="#f5ab35" d="M12.51-2.75h8v38.7h-8z" />
  <path transform="rotate(-45 18.045 14.956)" fill="#f9cd86" d="M16.25-4.39h3.6v38.7h-3.6z" />
  <path stroke="#414042" fill="none"
    d="M9.78 4.17l-1.7 1.8M5.98.37l-1.7 1.8M13.58 7.97l-1.7 1.8M17.38 11.87l-1.7 1.7M21.18 15.67l-1.7 1.7M28.88 23.27l-1.8 1.7M25.08 19.47l-1.8 1.7M32.68 27.07l-1.8 1.7" />
  <g>
    <path fill="#fff" d="M3.58 26.87l25.1-25.1 2.7 2.7-25.2 25-4.6 2.1c-.1 0-.2-.1-.1-.1l2.1-4.6z" />
    <path transform="rotate(-45 17.382 15.6)" fill="#36d7b7" d="M-.37 13.7h35.5v3.8H-.37z" />
    <path transform="rotate(-45 18.036 16.31)" fill="#86e7d4" d="M.29 15.35h35.5v1.9H.29z" />
    <path fill="#fff" transform="rotate(-45 28.413 4.57)" d="M26.21 2.58h4.4v4h-4.4z" />
    <path stroke="#414042" fill="none"
      d="M3.58 26.87l25.1-25.1 2.7 2.7-25.2 25-4.6 2.1c-.1 0-.2-.1-.1-.1l2.1-4.6zM28.18 7.57l-2.3-2.4M6.08 29.37l-2.4-2.4" />
  </g>
</svg>