<svg xmlns="http://www.w3.org/2000/svg" viewBox="0 0 34.49 41.71">
  <path fill="#6d6e71" stroke-width=".83" stroke-miterlimit="10" stroke="#414042" d="M1.51 39.5h31.56v1.79H1.51z" />
  <path fill="#f5ab35" d="M17.25.5H34v39H17.25z" />
  <path d="M.5 21.41h16.75V39.5H1.5c-.55 0-1-.45-1-1V21.41z" fill="#f9cd86" />
  <path fill="#414042" d="M7.98 33.22h1.8v1.8h-1.8z" />
  <path stroke="#414042" d="M.5 33.41h16.75" />
  <path fill="#414042" d="M7.98 27.22h1.8v1.8h-1.8z" />
  <path stroke="#414042" d="M.5 27.41h16.75" />
  <path fill="#414042" d="M7.98 21.22h1.8v1.8h-1.8z" />
  <path stroke="#414042" d="M.5 21.41h16.75" />
  <g stroke="#414042">
    <path fill="none"
      d="M.5 1.5c0-.5.42-1 1.06-1h31.38c.53 0 1.06.5 1.06 1m-.01 37c.01.6-.42 1-.95 1H1.56c-.63 0-1.06-.5-1.06-1V20" />
    <path d="M17.25.5v39-39z" fill="#f9cd86" stroke-miterlimit="10" />
  </g>
  <circle stroke="#414042" fill="none" cx="22.25" cy="24.47" r=".9" />
  <g stroke-width=".45" stroke-miterlimit="10" stroke="#414042" fill="none">
    <path d="M9.28 14.62v-7.1" />
    <path d="M7.68 5.92c0-.88.72-1.6 1.6-1.6s1.6.72 1.6 1.6-.72 1.6-1.6 1.6" stroke-linecap="round" />
  </g>
  <path d="M8.88 8.99c-2.57 0-4.81 1.52-5.87 3.7h2.74v3.7H9.3V9.02c-.14 0-.28-.03-.42-.03z" fill="#5edfc5" />
  <path d="M9.29 9.02v7.37h3.08v-3.7h2.38A6.572 6.572 0 009.3 9.02z" fill="#36d7b7" />
  <path d="M5.74 13.78v2.61m6.63-2.61v2.61" />
  <circle fill="#414042" cx="9.28" cy="15.94" r=".23" />
  <circle fill="#414042" cx="9.28" cy="14.62" r=".23" />
  <circle fill="#414042" cx="9.28" cy="13.26" r=".23" />
  <circle fill="#414042" cx="9.28" cy="11.94" r=".23" />
</svg>