<svg xmlns="http://www.w3.org/2000/svg" viewBox="0 0 1645.03 480" fill-rule="evenodd" fill="currentColor">
  <path
    d="M743.3 170.16h-41.36v-41.35h41.36v41.35zm1.18 248.16h-42.54V215.06h42.54v203.26zM151.82 256.59c-5.51-12.38-17.2-44.84-53.71-44.84-22.59 0-43.15 17.35-55.57 30.61V129.98H0v284.78h42.54V310.08c4.61-20.7 21.58-52.45 42.02-52.45 23.99 0 21.8 16.52 21.8 16.52v139.44h47.27V292.84c.28-10.17.28-31.56-1.81-36.24zm988.57 0c-5.52-12.38-17.22-44.84-53.71-44.84-22.6 0-43.16 17.35-55.58 30.61V129.98h-42.54v284.78h42.54V310.08c4.61-20.7 21.59-52.45 42.01-52.45 23.98 0 21.81 16.52 21.81 16.52v139.44h47.26V292.84c.3-10.17.3-31.56-1.79-36.24zm-783.64 15.12c0-56.32-79.79-62.57-79.79-62.57-88.64 0-86.56 95.42-86.56 95.42 0 111.07 86.04 116.3 105.34 116.3s58.4-7.3 58.4-7.3v-34.93c-18.25 7.3-46.41 7.29-46.41 7.29-59.45 0-66.75-79.27-66.75-79.27h115.78v-34.93zm-115.76 6.77s3.14-35.45 32.34-35.45 39.11 25.02 39.11 34.92l-71.45.52zm633.75-35.44c29.19 0 33.24 32.88 33.24 42.79l50.62-.34c0-82.88-80.22-76.35-80.22-76.35-88.63 0-86.55 95.42-86.55 95.42 0 111.07 86.04 116.3 105.33 116.3s58.41-7.3 58.41-7.3v-34.93c-18.26 7.3-46.42 7.29-46.42 7.29-66.73 0-66.75-79.27-66.75-79.27s-5.76-63.6 32.34-63.6zm-358.33 7.47v-35.45h-56.72v-44.1l.31-26.49-48.76 20.96v49.63H368.7v35.45h42.54v114.63h.47c-.2 7.51-.32 18.23.32 26.5 2.09 27.12 38.58 28.69 38.58 28.69h59.46v-35.48s-4.17.52-29.2.52-20.86-29.19-20.86-29.19h-.31V250.5h56.72zm153.3 0v-35.45h-56.72v-44.1l.32-26.49-48.77 20.96v49.63H522v35.45h42.54v114.63h.47c-.2 7.51-.32 18.23.32 26.5 2.1 27.12 38.59 28.69 38.59 28.69h59.45v-35.48s-4.17.52-29.2.52-20.86-29.19-20.86-29.19h-.32V250.5h56.73z" />
  <path fill="var(--brand-color, #295BA7)" d="M1241.55 223.31L1645.03 0v43.82l-404.19 225.39.7-45.91z" />
  <path fill="var(--brand-color, #33A457)" d="M1241.55 293.57l403.49-223.32v43.83l-404.19 225.38.7-45.9z" />
  <path fill="var(--brand-color, #FFF22D)" d="M1241.55 363.83l403.49-223.31v43.82l-404.19 225.39.7-45.91z" />
  <path fill="var(--brand-color, #CC203C)" d="M1241.55 434.08l403.49-223.3v43.82l-404.19 225.39.7-45.92z" />
</svg>