<svg xmlns="http://www.w3.org/2000/svg" viewBox="0 0 2400 500" clip-rule="evenodd" fill-rule="evenodd"
  fill="currentColor">
  <path
    d="M1071.3 170.2h-41.4v-41.4h41.4v41.4zm1.2 248.1H1030V215.1h42.5v203.2zM479.8 256.6c-5.5-12.4-17.2-44.8-53.7-44.8-22.6 0-43.1 17.4-55.6 30.6V130H328v284.8h42.5V310.1c4.6-20.7 21.6-52.5 42-52.5 24 0 21.8 16.5 21.8 16.5v139.4h47.3V292.8c.3-10.1.3-31.5-1.8-36.2zm988.6 0c-5.5-12.4-17.2-44.8-53.7-44.8-22.6 0-43.2 17.4-55.6 30.6V130h-42.5v284.8h42.5V310.1c4.6-20.7 21.6-52.5 42-52.5 24 0 21.8 16.5 21.8 16.5v139.4h47.3V292.8c.3-10.1.3-31.5-1.8-36.2zm-783.6 15.1c0-56.3-79.8-62.6-79.8-62.6-88.6 0-86.6 95.4-86.6 95.4 0 111.1 86 116.3 105.3 116.3s58.4-7.3 58.4-7.3v-34.9c-18.2 7.3-46.4 7.3-46.4 7.3-59.5 0-66.8-79.3-66.8-79.3h115.8l.1-34.9zM569 278.5s3.1-35.4 32.3-35.4c29.2 0 39.1 25 39.1 34.9l-71.4.5zm633.7-35.5c29.2 0 33.2 32.9 33.2 42.8l50.6-.3c0-82.9-80.2-76.4-80.2-76.4-88.6 0-86.5 95.4-86.5 95.4 0 111.1 86 116.3 105.3 116.3s58.4-7.3 58.4-7.3v-34.9c-18.3 7.3-46.4 7.3-46.4 7.3-66.7 0-66.8-79.3-66.8-79.3s-5.7-63.5 32.4-63.6zm-358.3 7.5v-35.4h-56.7V171l.3-26.5-48.8 21v49.6h-42.5v35.4h42.5v114.6h.5c-.2 7.5-.3 18.2.3 26.5 2.1 27.1 38.6 28.7 38.6 28.7h59.5v-35.5s-4.2.5-29.2.5-20.9-29.2-20.9-29.2h-.3V250.5h56.7zm153.3 0v-35.4H941V171l.3-26.5-48.8 21v49.6H850v35.4h42.5v114.6h.5c-.2 7.5-.3 18.2.3 26.5 2.1 27.1 38.6 28.7 38.6 28.7h59.5v-35.5s-4.2.5-29.2.5-20.9-29.2-20.9-29.2h-.3V250.5h56.7z" />
  <path fill="var(--brand-color, #295BA7)" d="M1569.6 223.3L1973 0v43.8l-404.2 225.4.8-45.9z" />
  <path fill="var(--brand-color, #33A457)" d="M1569.6 293.6L1973 70.2V114l-404.2 225.4.8-45.8z" />
  <path fill="var(--brand-color, #FFF22D)" d="M1569.6 363.8L1973 140.5v43.8l-404.2 225.4.8-45.9z" />
  <path fill="var(--brand-color, #CC203C)" d="M1569.6 434.1L1973 210.8v43.8L1568.9 480l.7-45.9z" />
</svg>