<svg version="1.1" xmlns="http://www.w3.org/2000/svg" viewBox="0 0 143 28" fill-rule="evenodd" clip-rule="evenodd">
	<g style="fill: var(--brand-color, #000);">
		<path class="st1"
			d="M67.1,8.2h-1.9V6.2h1.9V8.2z M67.1,19.9h-2v-9.6h2V19.9z M39.2,12.3c-0.3-0.6-0.8-2.1-2.5-2.1 c-1.1,0-2,0.8-2.6,1.4V6.3h-2v13.4h2v-4.9c0.2-1,1-2.5,2-2.5c1.1,0,1,0.8,1,0.8v6.6h2.2V14C39.3,13.5,39.3,12.5,39.2,12.3L39.2,12.3 z M85.8,12.3c-0.3-0.6-0.8-2.1-2.5-2.1c-1.1,0-2,0.8-2.6,1.4V6.3h-2v13.4h2v-4.9c0.2-1,1-2.5,2-2.5c1.1,0,1,0.8,1,0.8v6.6h2.2V14 C85.9,13.5,85.9,12.5,85.8,12.3L85.8,12.3z M48.9,13c0-2.7-3.8-2.9-3.8-2.9c-4.2,0-4.1,4.5-4.1,4.5c0,5.2,4.1,5.5,5,5.5 c0.9,0,2.8-0.3,2.8-0.3V18c-0.9,0.3-2.2,0.3-2.2,0.3c-2.8,0-3.1-3.7-3.1-3.7h5.5L48.9,13L48.9,13L48.9,13z M43.4,13.3 c0,0,0.1-1.7,1.5-1.7s1.8,1.2,1.8,1.6L43.4,13.3L43.4,13.3z M73.3,11.6c1.4,0,1.6,1.5,1.6,2l2.4,0c0-3.9-3.8-3.6-3.8-3.6 c-4.2,0-4.1,4.5-4.1,4.5c0,5.2,4.1,5.5,5,5.5c0.9,0,2.8-0.3,2.8-0.3V18c-0.9,0.3-2.2,0.3-2.2,0.3c-3.1,0-3.1-3.7-3.1-3.7 S71.5,11.6,73.3,11.6z M56.4,12v-1.7h-2.7V8.2l0-1.2l-2.3,1v2.3h-2V12h2v5.4h0c0,0.4,0,0.9,0,1.2c0.1,1.3,1.8,1.4,1.8,1.4h2.8v-1.7 c0,0-0.2,0-1.4,0c-1.2,0-1-1.4-1-1.4h0v-5H56.4z M63.6,12v-1.7h-2.7V8.2L61,7l-2.3,1v2.3h-2V12h2v5.4h0c0,0.4,0,0.9,0,1.2 c0.1,1.3,1.8,1.4,1.8,1.4h2.8v-1.7c0,0-0.2,0-1.4,0c-1.2,0-1-1.4-1-1.4h0v-5H63.6z" />
	</g>
	<path style="fill: var(--brand-color, #295BA7);" d="M90.6,10.7l19-10.5v2.1L90.5,12.8L90.6,10.7z" />
	<path style="fill: var(--brand-color, #33A457);" d="M90.6,14l19-10.5v2.1L90.5,16.2L90.6,14z" />
	<path style="fill: var(--brand-color, #FFF22D);" d="M90.6,17.3l19-10.5v2.1L90.5,19.5L90.6,17.3z" />
	<path style="fill: var(--brand-color, #CC203C);" d="M90.6,20.6l19-10.5v2.1L90.5,22.8L90.6,20.6z" />
</svg>