<svg version="1.1" xmlns="http://www.w3.org/2000/svg" viewBox="0 0 143 28">
	<g style="fill: var(--brand-color, #05377B);">
		<path
			d="M103,12.1h3v7.7h-3V12.1z M107.4,19.9L107.4,19.9v-7.8h1.1c1.3,0,1.9,0.7,1.9,2v5.8H107.4z M106.5,11.6h-4v8.7 h4V11.6L106.5,11.6z M111,14.2L111,14.2c0-1.7-0.9-2.5-2.6-2.5h-1.5v8.7h4.1C111,20.3,111,14.2,111,14.2z M95.3,19.9L95.3,19.9 c-1.1,0-1.7-0.6-1.7-1.9v-0.9c0-0.4,0.1-0.9,0.4-1.2c0.3-0.3,0.7-0.5,1.1-0.4h1.5v4.5H95.3L95.3,19.9z M93.6,13.8L93.6,13.8 c0-0.2,0-0.5,0.1-0.7c0.2-0.7,0.8-1,1.8-1h1.1v1.7L93.6,13.8L93.6,13.8z M98.2,12.1h3v7.7h-3L98.2,12.1L98.2,12.1z M97.1,14.9h-2 c-0.6,0-1.1,0.2-1.5,0.6c-0.4,0.5-0.5,1-0.5,1.6V18c0,1.6,0.8,2.4,2.3,2.4h1.8L97.1,14.9L97.1,14.9z M97.1,11.6h-1.5 c-0.9,0-1.6,0.2-2,0.7c-0.4,0.4-0.6,1.1-0.6,2h4.1L97.1,11.6L97.1,11.6z M101.8,11.6h-4v8.7h4V11.6L101.8,11.6z M84.1,12.2h3v11.7 h-3L84.1,12.2L84.1,12.2z M90,19.9h-1.3v-7.7h1.3c1.1,0,1.6,0.6,1.6,1.8v4C91.7,19.2,91.2,19.9,90,19.9 M87.7,11.6h-4.1v12.8h4.1 V11.6z M92.3,14.1L92.3,14.1c0-1.6-0.7-2.5-2.2-2.5h-1.8v8.7h1.7c1.6,0,2.4-0.8,2.4-2.5V14.1z M76.7,19.9L76.7,19.9 c-0.7,0-1.2-0.1-1.5-0.4c-0.3-0.4-0.5-0.8-0.4-1.3h3v1.8L76.7,19.9L76.7,19.9z M81.6,19.7L81.6,19.7c-0.3,0.1-0.9,0.2-1.8,0.2h-0.5 v-2c0-0.4-0.2-0.6-0.6-0.7L76,16.4c-0.3-0.1-0.7-0.2-0.9-0.5c-0.2-0.2-0.3-0.5-0.3-1v-0.8c0-0.9,0.3-1.6,0.8-1.8 c0.3-0.2,0.9-0.3,1.8-0.3h0.3v2c0,0.2,0.1,0.4,0.2,0.6c0.2,0.1,0.4,0.2,0.6,0.3l2.6,0.7c0.9,0.2,1.3,0.7,1.3,1.5V18 C82.4,18.9,82.2,19.5,81.6,19.7 M79.4,13.8L79.4,13.8v-1.8h1.1c0.7,0,1.2,0.2,1.5,0.5c0.3,0.4,0.5,0.8,0.4,1.3L79.4,13.8L79.4,13.8z M78.2,17.7h-3.9c0,0.9,0.2,1.6,0.6,2c0.4,0.5,1,0.7,1.9,0.7h1.4L78.2,17.7L78.2,17.7z M82.9,16.9L82.9,16.9c0-0.9-0.5-1.5-1.5-1.8 l-2.4-0.6c-0.6-0.1-0.9-0.4-0.9-0.6v-2.3h-1c-1,0-1.6,0.1-2,0.3c-0.6,0.3-0.9,1-0.9,2V15c0,0.4,0.1,0.8,0.3,1.2 c0.3,0.3,0.6,0.5,1,0.6l2.5,0.7l0.4,0.1l0.1,0c0.1,0.1,0.2,0.3,0.2,0.5v2.2h1.2c0.9,0,1.6-0.1,1.9-0.3c0.6-0.3,0.9-1,0.9-2 L82.9,16.9L82.9,16.9z M82.4,12.3L82.4,12.3c-0.4-0.4-1.1-0.7-2-0.7h-1.5v2.7H83C83,13.4,82.8,12.7,82.4,12.3 M69.2,11.6h-1.8 c-1.5,0-2.2,0.8-2.2,2.5v3.7c0,1.7,0.8,2.5,2.4,2.5h1.7L69.2,11.6L69.2,11.6z M73.6,14.1L73.6,14.1c0-1.6-0.7-2.5-2.2-2.5h-1.8v8.7 h1.7c1.6,0,2.4-0.8,2.4-2.5V14.1L73.6,14.1z M59.9,11.6h-4v8.7h4V11.6L59.9,11.6z M64.5,14.2L64.5,14.2c0-1.7-0.9-2.5-2.6-2.5h-1.5 v8.7h4.1V14.2L64.5,14.2z M50.8,11.6h-1.8c-1.5,0-2.2,0.8-2.2,2.5v3.7c0,1.7,0.8,2.5,2.3,2.5h1.7V11.6z M55.2,14.1L55.2,14.1 c0-1.6-0.7-2.5-2.2-2.5h-1.8v8.7h1.7c1.6,0,2.4-0.8,2.4-2.5V14.1L55.2,14.1z M46,13.1L46,13.1c-0.1-0.3-0.2-0.6-0.4-0.8 c-0.4-0.5-1.1-0.7-2-0.7h-1.5V16h4C46.1,14.4,46.1,13.4,46,13.1 M41.6,11.6h-4v8.7h4V11.6z M32.3,7.9h-4.1v12.4h4.1V7.9z M36.9,17.1 L36.9,17.1c0-0.3-0.1-0.5-0.2-0.7l-0.8-0.6c0.3-0.2,0.6-0.4,0.8-0.6c0.2-0.2,0.2-0.5,0.2-0.7v-2.8h-4.1v8.7h4V17.1L36.9,17.1z" />
	</g>
</svg>