<svg width="2400" height="500" xmlns="http://www.w3.org/2000/svg">
  <path
    d="M1935.86 170.43h69.09v177.03h-69.09V170.43zm102.12 177.04V169.88h25.23c28.7 0 43.03 15.13 43 45.4v132.2h-68.22l-.01-.01zm-21.65-188.93h-91.91v199.7h91.91V158.49v.05zm102.99 58.21c0-38.81-19.58-58.21-58.72-58.21h-34.26v199.7h92.98V216.75zm-358.4 130.41c-26.21 0-39.31-14.23-39.31-42.69v-20.94a40.47 40.47 0 019.09-28.08 32.76 32.76 0 0125.53-10.22h35.13v101.92h-30.64.2v.01zm-37.83-138.48c0-5.6.88-11.16 2.61-16.5 5.01-15.25 18.62-22.89 40.85-22.92h24.82v39.37h-68.42l.16.05h-.02zm104.72-37.99h69.09v176.47h-69.03V170.74l-.05-.05h-.01zm-24.92 63.21h-46.67a42.5 42.5 0 00-34.46 14.1 55.67 55.67 0 00-11.85 37.07v19.2c0 36.12 17.43 54.18 52.29 54.18h40.85V233.96l-.16-.05v-.01zm0-75.16h-33.85c-21.58 0-36.9 5.1-45.95 15.32-9.06 10.22-13.52 25.31-13.38 45.29h92.93v-60.56l.25-.05zm105.7 0h-92.42v199.8h92.42v-199.8zm-402.31 12.76h68.78v266.39h-68.73V171.5h-.05zm133.78 175.91h-28.59V171.5h30.64c25.09 0 37.63 13.91 37.63 41.71v90.63c0 29.04-13.31 43.58-39.93 43.61m-52.75-188.66h-92.62v291.87h92.62V158.79zm104.67 55.96c0-37.44-17.02-56.17-51.07-56.17h-42.12v199.65h39.11c36.05 0 54.07-19.28 54.07-57.85v-85.63h.01zm-355.08 132.77c-15.59 0-26.72-3.41-33.39-10.22a41.11 41.11 0 01-9.8-30.13h68.27v40.24h-24.87l-.2.11h-.01zm111.47-3.79c-6.03 2.48-19.47 3.75-40.34 3.78h-11.29v-45.45c0-8.53-4.74-14.19-14.14-16.95l-62.04-17.21a45.52 45.52 0 01-21.29-11.08c-3.88-4.39-5.77-11.69-5.77-21.96v-17.82c0-21.48 6.09-35.47 18.28-41.98 7.46-3.99 20.88-5.99 40.29-6.03h7.46v45.95c-.47 5.16 1.4 10.26 5.1 13.89a36.87 36.87 0 0014.6 6.03l58.92 14.85c19.44 4.77 29.15 16.39 29.15 34.87v20.42c0 20.42-6.3 33.29-18.89 38.6m-50.44-134.1v-40.49h25.12c16 0 27.37 3.5 34.11 10.52a41.5 41.5 0 0110.22 30.02h-69.29l-.16-.05zm-26.66 87.11h-88.39c0 21.04 4.22 36.36 12.67 45.95 9.19 10.42 23.88 15.62 44.07 15.62h31.96v-61.58h-.31v.01zm106.83-16.54c0-21.04-11.05-34.43-33.14-40.19l-53.97-13.94c-13.07-3.41-19.61-8.15-19.61-14.24v-52.95h-22.42c-21.92 0-36.85 2.13-44.78 6.39-14.19 7.76-21.29 23.3-21.29 46.62v25.18a44.36 44.36 0 007.15 26.66 39.67 39.67 0 0023.23 13.89l57.85 15.07 8.98 2.61 2.56 1.07c3.05 2.81 4.55 6.92 4.03 11.03v50.96h27.16c21.58 0 36.15-2.13 43.71-6.39 13.82-7.76 20.73-23.3 20.73-46.62v-25.12h-.2v-.02l.01-.01zm-11.74-105.69c-9.09-10.22-24.41-15.32-45.95-15.32h-33.8v61.27h93.44c0-20.42-4.57-35.74-13.69-45.95m-301.99-15.32h-41.67c-33.8 0-50.71 18.73-50.71 56.17v85.12c0 38.57 17.91 57.85 53.72 57.85h38.7V158.8l-.05.31.01-.01zm101.82 56.17c0-37.44-16.9-56.17-50.71-56.17h-41.67v199.14h38.65c35.84 0 53.75-19.28 53.72-57.85v-85.63.51h.01zM953.23 159.1h-91.91v199.14h91.91V158.49v.61zm102.94 58.21c0-38.81-19.53-58.21-58.57-58.21h-34.11v199.14h92.67V216.75v.56h.01zm-312.75-58.52h-41.67c-33.8 0-50.69 18.73-50.66 56.17v85.43c-.03 38.57 17.84 57.85 53.61 57.85h38.7V158.8l.02-.01zm101.82 56.17c0-37.44-16.9-56.17-50.71-56.17h-41.67v199.44h38.65c35.81 0 53.72-19.28 53.72-57.85v-85.63.2l.01.01zM634.3 193.51a50.5 50.5 0 00-9.75-19.09c-9.29-10.52-24.61-15.78-45.95-15.78h-33.39v100.03h91.91c0-37.04-1-58.81-3.01-65.31m-99.43-34.57h-92.42v199.75h92.42V158.79zM322.67 75H230v283.54h92.67V75zM427.3 284.35c.21-5.9-1.81-11.66-5.67-16.14l-18.07-14.3c6.77-4.21 13.08-9.1 18.84-14.6a25.86 25.86 0 005.1-16.14v-64.38h-92.58v199.75h92.37v-74.19h.01z"
    fill="var(--brand-color, #05377B)" />
</svg>