<svg xmlns="http://www.w3.org/2000/svg" viewBox="0 0 2400 500" fill="currentColor">
  <path fill="var(--brand-color, #05377B)"
    d="M2136.44 156.86h84.6v216.78h-84.6V156.86zm125.05 216.78V156.18h30.89c35.14 0 52.69 18.53 52.65 55.59v161.88h-83.53zm-26.51-231.35h-112.55v244.54h112.55v-244.6.06zm126.11 71.28c0-47.52-23.97-71.28-71.9-71.28h-41.95v244.54h113.86V213.57zm-438.86 159.69c-32.1 0-48.14-17.42-48.14-52.27v-25.64a49.558 49.558 0 0111.13-34.39 40.077 40.077 0 0131.26-12.51h43.02v124.8h-37.52.25zm-46.33-169.57c0-6.86 1.08-13.67 3.19-20.2 6.13-18.67 22.8-28.03 50.02-28.07h30.39v48.21h-83.78l.19.06zm128.23-46.52h84.6v216.09h-84.53V157.23l-.06-.06zm-30.51 77.41h-57.15a52.07 52.07 0 00-42.2 17.26 68.192 68.192 0 00-14.51 45.39v23.51c0 44.23 21.34 66.34 64.03 66.34h50.02V234.64l-.19-.06zm0-92.04h-41.45c-26.43 0-45.19 6.25-56.27 18.76-11.09 12.51-16.55 30.99-16.38 55.46h113.8V142.6l.31-.06zm129.43 0h-113.17V387.2h113.17V142.54zm-492.64 15.63h84.22v326.2h-84.16v-326.2h-.06zm163.82 215.4h-35.01v-215.4h37.52c30.72 0 46.08 17.03 46.08 51.08v110.98c0 35.56-16.3 53.36-48.89 53.4m-64.6-231.03h-113.42V500h113.42V142.6zm128.17 68.53c0-45.85-20.84-68.78-62.53-68.78h-51.58v244.47h47.89c44.14 0 66.21-23.61 66.21-70.84V211.12zM1402.7 373.7c-19.09 0-32.72-4.17-40.89-12.51a50.362 50.362 0 01-12-36.89h83.6v49.27h-30.45l-.25.13zm136.5-4.63c-7.38 3.04-23.84 4.59-49.4 4.63h-13.82v-55.65c0-10.44-5.81-17.38-17.32-20.76l-75.97-21.07a55.772 55.772 0 01-26.07-13.57c-4.75-5.38-7.07-14.32-7.07-26.89v-21.82c0-26.3 7.46-43.43 22.38-51.4 9.13-4.88 25.57-7.34 49.33-7.38h9.13v56.27a21.138 21.138 0 006.25 17.01 45.091 45.091 0 0017.88 7.38l72.15 18.19c23.8 5.84 35.7 20.07 35.7 42.7v25.01c0 25.01-7.71 40.77-23.13 47.27m-61.76-164.24v-49.58h30.76c19.59 0 33.51 4.29 41.77 12.88a50.786 50.786 0 0112.51 36.76h-84.85l-.19-.06zm-32.64 106.67h-108.23c0 25.76 5.17 44.52 15.51 56.27 11.25 12.76 29.24 19.13 53.96 19.13h39.14v-75.41h-.38zm130.81-20.26c0-25.76-13.53-42.16-40.58-49.21l-66.09-17.07c-16.01-4.17-24.01-9.98-24.01-17.44V142.6h-27.45c-26.84 0-45.12 2.61-54.83 7.82-17.38 9.5-26.07 28.53-26.07 57.09v30.83a54.325 54.325 0 008.75 32.64 48.55 48.55 0 0028.45 17.01l70.84 18.45 11 3.19 3.13 1.31c3.73 3.44 5.57 8.47 4.94 13.51v62.4h33.26c26.43 0 44.27-2.61 53.52-7.82 16.92-9.5 25.39-28.53 25.39-57.09v-30.76h-.25zm-14.38-129.42c-11.13-12.51-29.89-18.76-56.27-18.76h-41.39v75.03h114.42c0-25.01-5.59-43.77-16.76-56.27m-369.78-18.76h-51.02c-41.39 0-62.09 22.93-62.09 68.78v104.23c0 47.23 21.93 70.84 65.78 70.84h47.39V142.61l-.06.38zm124.68 68.78c0-45.85-20.7-68.78-62.09-68.78h-51.02v243.85h47.33c43.89 0 65.82-23.61 65.78-70.84V211.13v.63zM933.2 142.98H820.65v243.85H933.2v-244.6.75zm126.05 71.28c0-47.52-23.91-71.28-71.72-71.28h-41.77v243.85h113.48V213.57v.69zM676.28 142.6h-51.02c-41.39 0-62.07 22.93-62.03 68.78v104.61c-.04 47.23 21.84 70.84 65.65 70.84h47.39V142.61zm124.68 68.78c0-45.85-20.7-68.78-62.09-68.78h-51.02v244.22h47.33c43.85 0 65.78-23.61 65.78-70.84V211.12v.25zm-258.3-26.26a61.927 61.927 0 00-11.94-23.38c-11.38-12.88-30.14-19.32-56.27-19.32h-40.89v122.49h112.55c0-45.35-1.23-72.01-3.69-79.97M420.68 142.6H307.51v244.6h113.17V142.6zM161.07 40H47.59v347.2h113.48V40zm128.12 256.35c.26-7.23-2.22-14.28-6.94-19.76l-22.13-17.51c8.29-5.15 16.02-11.14 23.07-17.88 4.24-5.7 6.44-12.66 6.25-19.76V142.6H176.08v244.6h113.11v-90.85z" />
</svg>