<svg fill="currentColor" xmlns="http://www.w3.org/2000/svg" viewBox="0 0 18.75 21.56">
  <path d="M5.7 15.13l.73.42v-2.57l-.73-.42v2.57zM3.26 13.72l.73.42v-2.57l-.73-.42v2.57z" />
  <path
    d="M0 16.14l.73.42 8.28 4.78.37.21.37-.21 8.28-4.78.73-.42V5.46l-.43-.25h-.01L10.03.42 9.3 0l-.73.42L0 5.37m0 0L9.3.84l8.28 4.78-8.22 4.75-.35-.2-7.93-4.58L9.3.84zm.73 10.36v-9.5L4.48 8.4v9.49L.73 15.72zm4.48 2.58V8.82l3.42 1.97.38.22v9.49l-3.8-2.19zm12.81-2.58l-8.28 4.78v-4.36l2.14-1.24v1.57l3.9-2.25v-1.57l2.24-1.29v4.36zm0-5.2l-8.28 4.78v-4.3l2.19-1.27v1.57l3.9-2.25V7.49l2.19-1.27v4.3z" />
  <path d="M14.68 4.34l-3.9-2.25-.72.42 3.89 2.25.73-.42z" />
</svg>