<svg xmlns="http://www.w3.org/2000/svg" width="175" height="40" fill="none" viewBox="0 0 175 40">
  <g>
    <path stroke="#FAA453" stroke-linecap="round" stroke-linejoin="round" stroke-miterlimit="10" stroke-width="2" d="M65.793 1.922 50.31 10.895V28.84l15.475 8.973 15.476-8.973V10.895L65.793 1.922ZM50.31 10.895l15.483 8.972m0 17.938V19.867m15.475-8.972-15.475 8.972M57.86 33.212V15.267m23.408 4.6L65.793 28.84"/>
    <path fill="#FAA453" fill-rule="evenodd" d="m71.261 16.629 5.117-2.9v3.069l-5.117 3.07v-3.24Zm0 8.965 5.117-2.893v3.07l-5.117 3.069v-3.246Z" clip-rule="evenodd"/>
    <path fill="#FAA453" d="m60.163 29.76-.873-.508v-7.015l.873.508v7.015Zm-3.732-2.017-.872-.508v-7.007l.872.508v7.007ZM65.653 5.69l1.43-.83 7.44 4.312-1.436.832-7.434-4.313Z"/>
  </g>
  <path fill="currentColor" d="M3.803 11.417h5.374c3.629 0 5.732 2.253 5.732 5.44 0 3.21-2.14 5.41-5.82 5.41H6.252v4.269c0 .611-.33.942-.939.942h-1.51c-.608 0-.938-.331-.938-.942V12.359c.007-.61.33-.942.938-.942Zm4.743 8.134c1.936 0 2.881-1.097 2.881-2.687 0-1.597-.945-2.664-2.895-2.664h-2.28v5.358h2.294v-.007Zm15.094 8.148c-4.266 0-7.492-3.018-7.492-8.251 0-5.256 3.226-8.252 7.492-8.252 4.238 0 7.492 2.996 7.492 8.252 0 5.255-3.247 8.251-7.492 8.251Zm0-3.003c2.456 0 4.062-1.84 4.062-5.248 0-3.408-1.606-5.248-4.062-5.248-2.463 0-4.06 1.84-4.06 5.248 0 3.408 1.597 5.248 4.06 5.248Zm19.786-8.465c-.498-1.28-1.686-2.031-3.233-2.031-2.477 0-4.097 1.906-4.097 5.248 0 3.437 1.649 5.248 4.075 5.248 1.51 0 2.698-.692 3.226-1.914.227-.523.506-.795 1.063-.795l1.554.008c.652.007 1.012.397.836 1.03-.755 2.54-3.108 4.674-6.73 4.674-4.281 0-7.448-3.01-7.448-8.251 0-5.256 3.226-8.252 7.448-8.252 3.343 0 5.953 1.745 6.745 4.814.168.64-.199 1.03-.844 1.03h-1.546c-.558 0-.843-.271-1.049-.809Zm47.042-4.085 4.105 10.062h.191l4.105-10.062c.206-.493.558-.729 1.085-.729h2.442c.608 0 .938.332.938.943v14.176c0 .611-.33.942-.938.942h-1.408c-.608 0-.938-.331-.938-.942v-9.51h-.132l-3.842 9.635c-.205.5-.55.736-1.085.736h-.652c-.543 0-.88-.235-1.078-.736l-3.848-9.679h-.132v9.554c0 .611-.33.942-.939.942h-1.407c-.609 0-.939-.331-.939-.942V12.359c0-.61.33-.942.939-.942h2.441c.535 0 .887.236 1.092.73Zm15.908-.729h8.907c.609 0 .939.332.939.943v.92c0 .61-.33.942-.939.942h-6.458v3.827h5.901c.608 0 .938.332.938.942v.913c0 .611-.33.942-.938.942h-5.901v3.835h6.487c.609 0 .939.331.939.942v.92c0 .611-.33.943-.939.943h-8.936c-.608 0-.938-.332-.938-.943V12.36c0-.611.33-.943.938-.943Zm12.785 0h8.738c.609 0 .939.332.939.943v.92c0 .61-.33.942-.939.942h-6.297v3.135h2.603c3.797 0 6.158 1.95 6.158 4.998 0 3.033-2.361 5.13-6.158 5.13h-5.044c-.608 0-.938-.33-.938-.942V12.36c0-.611.33-.943.938-.943Zm5.051 13.33c1.811 0 2.8-1.111 2.8-2.429 0-1.28-.989-2.281-2.8-2.281h-2.602v4.71h2.602Zm8.592-13.33h8.907c.608 0 .938.332.938.943v.92c0 .61-.33.942-.938.942h-6.459v3.827h5.902c.608 0 .938.332.938.942v.913c0 .611-.33.942-.938.942h-5.902v3.835h6.488c.609 0 .938.331.938.942v.92c0 .611-.329.943-.938.943h-8.936c-.609 0-.939-.332-.939-.943V12.36c0-.611.33-.943.939-.943ZM144.24 24.71c1.759-.147 2.412-1.67 2.573-6.146l.235-6.22c.022-.603.351-.927.953-.927h8.995c.608 0 .938.332.938.943v14.176c0 .611-.33.942-.938.942h-1.415c-.609 0-.939-.331-.939-.942V14.141h-4.427l-.25 5.594c-.249 5.388-1.451 7.75-5.3 7.75-.564 0-.872-.33-.872-.942v-.883c0-.596.154-.927.447-.95Zm27.982-2.362c.007 3.032-2.361 5.13-6.158 5.13h-5.037c-.608 0-.938-.331-.938-.942V12.359c0-.61.33-.942.938-.942h1.503c.609 0 .939.332.939.943v4.997h2.602c3.79 0 6.158 1.95 6.151 4.99Zm-6.151 2.4c1.818 0 2.815-1.112 2.8-2.43.008-1.28-.982-2.281-2.8-2.281h-2.602v4.71h2.602Z"/>
</svg>
