<svg fill="currentColor" xmlns="http://www.w3.org/2000/svg" viewBox="0 0 169.36 38.8">
  <path
    d="M.94 10.78h5.37c3.63 0 5.73 2.25 5.73 5.44s-2.14 5.41-5.82 5.41H3.38v4.27c0 .61-.33.94-.94.94H.94c-.61 0-.94-.33-.94-.94V11.72c0-.61.33-.94.94-.94zm4.74 8.13c1.94 0 2.88-1.1 2.88-2.69s-.94-2.66-2.9-2.66H3.38v5.36h2.29zm15.09 8.15c-4.27 0-7.49-3.02-7.49-8.25s3.23-8.25 7.49-8.25 7.49 3 7.49 8.25-3.25 8.25-7.49 8.25zm0-3c2.46 0 4.06-1.84 4.06-5.25s-1.61-5.25-4.06-5.25-4.06 1.84-4.06 5.25 1.6 5.25 4.06 5.25zm19.79-8.47c-.5-1.28-1.69-2.03-3.23-2.03-2.48 0-4.1 1.91-4.1 5.25s1.65 5.25 4.08 5.25c1.51 0 2.7-.69 3.23-1.91.23-.52.51-.8 1.06-.8h1.55c.65.01 1.01.4.84 1.04-.76 2.54-3.11 4.67-6.73 4.67-4.28 0-7.45-3.01-7.45-8.25s3.23-8.25 7.45-8.25c3.34 0 5.95 1.74 6.74 4.81.17.64-.2 1.03-.84 1.03h-1.55c-.56 0-.84-.27-1.05-.81zm47.04-4.08l4.11 10.06h.19l4.11-10.06c.21-.49.56-.73 1.08-.73h2.44c.61 0 .94.33.94.94V25.9c0 .61-.33.94-.94.94h-1.41c-.61 0-.94-.33-.94-.94v-9.51h-.13l-3.84 9.64c-.21.5-.55.74-1.08.74h-.65c-.54 0-.88-.24-1.08-.74l-3.85-9.68h-.13v9.55c0 .61-.33.94-.94.94h-1.41c-.61 0-.94-.33-.94-.94V11.72c0-.61.33-.94.94-.94h2.44c.54 0 .89.24 1.09.73zm15.91-.73h8.91c.61 0 .94.33.94.94v.92c0 .61-.33.94-.94.94h-6.46v3.83h5.9c.61 0 .94.33.94.94v.91c0 .61-.33.94-.94.94h-5.9v3.83h6.49c.61 0 .94.33.94.94v.92c0 .61-.33.94-.94.94h-8.94c-.61 0-.94-.33-.94-.94V11.71c0-.61.33-.94.94-.94zm12.79 0h8.74c.61 0 .94.33.94.94v.92c0 .61-.33.94-.94.94h-6.3v3.13h2.6c3.8 0 6.16 1.95 6.16 5s-2.36 5.13-6.16 5.13h-5.04c-.61 0-.94-.33-.94-.94V11.72c0-.61.33-.94.94-.94zm5.05 13.33c1.81 0 2.8-1.11 2.8-2.43s-.99-2.28-2.8-2.28h-2.6v4.71h2.6zm8.59-13.33h8.91c.61 0 .94.33.94.94v.92c0 .61-.33.94-.94.94h-6.46v3.83h5.9c.61 0 .94.33.94.94v.91c0 .61-.33.94-.94.94h-5.9v3.83h6.49c.61 0 .94.33.94.94v.92c0 .61-.33.94-.94.94h-8.94c-.61 0-.94-.33-.94-.94V11.71c0-.61.33-.94.94-.94zm11.44 13.29c1.76-.15 2.41-1.67 2.57-6.15l.24-6.22c.02-.6.35-.93.95-.93h8.99c.61 0 .94.33.94.94v14.18c0 .61-.33.94-.94.94h-1.41c-.61 0-.94-.33-.94-.94V13.5h-4.43l-.25 5.59c-.25 5.39-1.45 7.75-5.3 7.75-.56 0-.87-.33-.87-.94v-.88c0-.6.15-.93.45-.95zm27.98-2.36c0 3.03-2.36 5.13-6.16 5.13h-5.04c-.61 0-.94-.33-.94-.94V11.72c0-.61.33-.94.94-.94h1.5c.61 0 .94.33.94.94v5h2.6c3.79 0 6.16 1.95 6.15 4.99zm-6.15 2.4c1.82 0 2.82-1.11 2.8-2.43 0-1.28-.98-2.28-2.8-2.28h-2.6v4.71h2.6z" />
  <g fill="#faa453">
    <path d="M56.64 27.23l1.31.76v-4.63l-1.31-.76v4.63zM52.25 24.7l1.32.76v-4.63l-1.32-.76v4.63z" />
    <path
      d="M46.38 29.06l1.32.76 14.91 8.61.66.38.66-.38 14.91-8.61 1.32-.76V9.83l-.78-.45h-.02L64.43.76 63.11 0 61.8.75 46.37 9.66m.01 0l16.74-8.15 14.91 8.61-14.8 8.54-.63-.37-14.27-8.24 14.79-8.54zm1.31 18.65V11.22l6.75 3.9v17.09l-6.75-3.9zm8.07 4.65V15.88l6.15 3.55.69.4v17.09l-6.84-3.95zm23.06-4.65l-14.91 8.61v-7.85l3.86-2.23v2.82l7.01-4.05v-2.82l4.03-2.33v7.85zm0-9.36l-14.91 8.61v-7.75l3.95-2.28v2.82l7.01-4.05v-2.82l3.95-2.28v7.75z" />
    <path d="M72.8 7.81l-7.01-4.05-1.31.76 7.02 4.05 1.3-.76z" />
  </g>
</svg>