<svg xmlns="http://www.w3.org/2000/svg" viewBox="0 0 55.38 63.27">
  <path fill="none" stroke="#414042" stroke-linecap="round" stroke-linejoin="round" stroke-width="3.5"
    d="M27.73 61.52l-25.98-15V16.66L27.57 1.75l25.98 15 .08 29.77-25.9 15z" />
  <g>
    <path fill="#f5ab35" stroke-width="0" d="M53.63 46.52l-25.98 15V31.7l25.98-15v29.82z" />
    <path fill="#414042"
      d="M52.44 32.33L30.84 44.8v2.48l7.82-4.52v1.39l5.96-3.44v-1.38l7.82-4.52v-2.48zM52.44 17.42l-21.6 12.47v2.48l7.82-4.51v1.38l5.96-3.44v-1.38l7.82-4.52v-2.48z" />
    <g>
      <path stroke-width="0" fill="#bcbec0" d="M27.73 61.52l-25.98-15V16.7l25.98 15v29.82z" />
      <path fill="#414042"
        d="M11.5 40.43l-1.86-1.07v-3.92l1.86 1.08v3.91zM14.67 50.31l-1.86-1.07V27.91l1.86 1.07v21.33zM17.84 44.09l-1.86-1.08V39.1l1.86 1.08v3.91z" />
    </g>
    <g>
      <path fill="#36d7b7" stroke-width="0" d="M27.73 31.66l-25.98-15L27.57 1.75l25.98 15-25.82 14.91z" />
      <path fill="#414042" d="M30.75 9.93l2.15-1.24 8.63 4.98-2.16 1.25-8.62-4.99z" />
    </g>
  </g>
  <path stroke-miterlimit="10" stroke-width="2" fill="none" stroke="#414042" d="M5.7 18.7l21.95 12.67v30.15" />
</svg>