<svg xmlns="http://www.w3.org/2000/svg" width="24" height="24" fill="none" viewBox="0 0 24 24">
  <path fill="currentColor"
    d="M21.058 6.613c0-.021-8.925-5.14-8.933-5.16a.272.272 0 0 0-.267 0L2.925 6.608a.267.267 0 0 0-.14.232v10.322c0 .093.051.182.132.229.173.025 8.873 5.228 9.068 5.194.19.047 8.903-5.17 9.068-5.194a.267.267 0 0 0 .132-.23V6.843a.246.246 0 0 0-.127-.23ZM7.146 19.22l-3.831-2.214V7.3l3.831 2.21v9.711Zm4.58 2.646-4.05-2.34V9.817l4.05 2.337v9.711ZM3.583 6.841l8.412-4.855L20.4 6.84l-8.407 4.856m8.666 5.314-8.404 4.851v-4.547l2.896-1.672v1.52l2.955-1.765v-1.461l2.553-1.473v4.546Zm0-5.157-8.404 4.852v-4.551l2.896-1.673v1.52l2.955-1.765v-1.46l2.553-1.478v4.555Z" />
  <path fill="currentColor"
    d="M8.742 17.692 8.24 17.4v-4.035l.503.293v4.034Zm-2.155-1.16-.503-.292v-4.03l.503.292v4.03Zm5.326-12.684.826-.478 4.297 2.48-.83.48-4.293-2.482Z" />
</svg>