<svg xmlns="http://www.w3.org/2000/svg" stroke-linejoin="round" viewBox="0 0 11.74 19.44" stroke="currentColor"
  fill="none">
  <path
    d="M5.95.5a4.78 4.78 0 100 9.56 4.78 4.78 0 000-9.56zm0 6.75c-1.09 0-1.98-.88-1.98-1.98s.88-1.98 1.98-1.98 1.98.88 1.98 1.98-.88 1.98-1.98 1.98zM7.64 13.86c1.91-.39 3.06-1.3 3.12-1.34a1.302 1.302 0 00-1.63-2.03c-.01 0-1.23.95-3.25.95-2.01 0-3.26-.94-3.27-.95a1.302 1.302 0 00-1.63 2.03c.06.05 1.26.98 3.22 1.36l-2.74 2.86c-.5.52-.48 1.34.03 1.84.25.24.58.36.9.36s.68-.13.94-.4l2.55-2.71 2.8 2.73c.51.51 1.33.51 1.84 0s.51-1.33 0-1.84l-2.89-2.86zM5.88 11.44s0 0 0 0 0 0 0 0z" />
</svg>