<svg xmlns="http://www.w3.org/2000/svg" width="24" height="24" fill="none" viewBox="0 0 24 24">
  <path fill="currentColor"
    d="M12 2a5 5 0 1 0 0 10 5 5 0 0 0 0-10Zm0 7.067a2.067 2.067 0 1 1 0-4.134 2.067 2.067 0 0 1 0 4.134Zm1.723 7.055c2.003-.413 3.204-1.372 3.268-1.423.586-.476.68-1.341.21-1.934a1.35 1.35 0 0 0-1.913-.213c-.012.01-1.293 1.003-3.4 1.005-2.106-.002-3.414-.995-3.426-1.005a1.35 1.35 0 0 0-1.913.213 1.386 1.386 0 0 0 .21 1.934c.065.052 1.315 1.036 3.374 1.439l-2.87 3.032a1.386 1.386 0 0 0 .035 1.945 1.348 1.348 0 0 0 1.924-.036l2.667-2.871 2.935 2.89a1.35 1.35 0 0 0 1.925-.002 1.386 1.386 0 0 0-.002-1.945l-3.024-3.03Z" />
</svg>