<svg xmlns="http://www.w3.org/2000/svg" width="24" height="24" fill="none" viewBox="0 0 24 24">
  <path stroke="currentColor" stroke-linecap="round" stroke-linejoin="round"
    d="M19.5 15.69v2.25a1.502 1.502 0 0 1-1.635 1.5 14.843 14.843 0 0 1-6.472-2.303 14.626 14.626 0 0 1-4.5-4.5A14.843 14.843 0 0 1 4.59 6.135 1.5 1.5 0 0 1 6.083 4.5h2.25a1.5 1.5 0 0 1 1.5 1.29 9.63 9.63 0 0 0 .525 2.107 1.5 1.5 0 0 1-.338 1.583l-.952.952a12 12 0 0 0 4.5 4.5l.952-.952a1.5 1.5 0 0 1 1.583-.338c.68.254 1.387.43 2.107.526a1.5 1.5 0 0 1 1.29 1.522Z" />
</svg>