<svg xmlns="http://www.w3.org/2000/svg" viewBox="0 0 2400 500" fill-rule="evenodd" fill="currentColor">
  <path fill="var(--brand-color, #00AEE0)"
    d="M531.81 288.29l49.48 14.13c16.35 5.23 31.41 9.92 48.21 14.79L898 397.52c8.61 2.45 16.35 6.45 25.41 7.32v-85.87c-33.57-7.85-154.48-46.7-194.51-58.38l-171.26-51.03c-8.19-2.78-16.8-6.27-25.83-6.96v85.7zm0-102.07c37 8.7 154.48 46.85 194.51 58.35l197.09 58.02v-85.72c-43.05-9.92-121.78-37.11-169.99-50.52-57.66-16.2-169.1-53.66-221.6-65.85v85.72zm744.01 124.54c0-73.15 89.5-74.55 89.5 0 0 60.11-55.08 67.61-77.89 39.2-7.74-9.74-11.61-22.11-11.61-39.2zm-51.22-10.1v18.31c0 83.25 105.43 113.57 161.8 63.74 29.25-26.12 30.12-49.99 30.12-84.14 0-64.63-92.08-116.02-162.23-60.45-14.64 11.32-29.7 41.82-29.7 62.54zm379.11-47.03h2.16c21.94 0 34.42 18.13 34.42 40.93h-71.01c0-22.29 12.48-40.93 34.44-40.93zm-87.36 55.22c0 117.78 123.07 116.73 161.38 65.67 4.29-5.74 8.16-16.2 11.61-22.8-10.77-2.63-39.15-8.19-50.77-8.19-5.61 11.32-11.19 30.3-38.73 24.56-22.38-4.72-30.57-20.38-30.57-43.03h122.22c0-44.43-9.05-85.18-50.34-102.6-57.24-24.23-124.81 8.34-124.81 86.39zM978.04 266c0 16.04 1.71 30.32 15.06 42.34 18.51 16.55 67.99 23.69 89.94 30.14 22.36 6.61 11.17 31.52-15.06 31.52-33.15 0-35.28-4.54-46.92-28.57-6.87.51-18.49 2.78-24.96 3.83-15.91 2.6-37.42-2.27-12.9 30.14 37.44 49.99 162.23 40.76 162.23-27.88 0-16.91 0-27.52-18.06-41.11-28.41-21.42-102.43-24.38-102.43-38.51 0-18.64 23.25-16.37 38.73-16.37 24.09 0 25.83 20.56 30.55 20.56 15.93 0 27.54-6.1 45.18-6.1-.42-16.37-15.48-32.39-26.25-39.38-25.81-16.37-82.6-15.48-109.28-.16-10.77 6.27-25.83 22.98-25.83 39.53zm760.36 40.76c-4.74 8.72-9.9 14.82-15.48 23.36-6.03 8.36-11.64 16.02-17.22 23.69-6.9 9.05-30.55 39.53-32.7 48.94h57.22l38.73-55.22c12.06 18.47 24.54 36.75 36.57 55.22h61.11c-2.16-8.01-11.61-17.95-16.35-24.56-5.58-8.19-11.19-14.99-17.22-23.69-5.16-7.5-31.84-42.34-33.55-49.83l30.97-42.31c5.61-7.14 27.99-35.19 30.12-43.38h-58.95l-34.84 48.94c-1.74-6.96-10.34-17.6-14.64-24.03-5.58-8.72-11.19-15.86-15.93-24.92h-61.09c1.71 6.63 25.38 37.11 30.97 44.61l32.28 43.18zm-307.68-124.54v36.75h-22.38v40.76h22.38v96c0 16.02 3.03 29.08 11.61 37.44 14.64 14.82 37.02 15.33 57.66 11.68 8.19-1.58 10.77-3.49 18.09-4.18 0-10.1-.44-16.2-1.29-23-1.29-10.43 2.14-17.06-5.61-16.55-1.71 0-29.68 13.41-29.68-9.39v-91.99h32.7v-40.76h-32.7v-63.23l-37.02 20.02c-5.58 3.31-6.87 4.87-13.77 6.45zm-268.94 220.53h50.79V149.47h-50.79v253.28zm-242.7 16.38l-193.64-57.31c0 30.66.42 61.31 0 91.97 0 25.78-4.29 25.96 15.93 20.04l160.93-47.39c8.16-2.27 12.48-1.58 16.77-7.32zM536.1 82.22v4c15.93 3.67 32.28 9.41 46.92 14.13l144.58 43.03V27c-8.19 1.91-14.64 4.36-23.67 6.96l-142 41.65c-9.03 2.42-16.35 6.25-25.83 6.61z" />
</svg>