<svg version="1.1" xmlns="http://www.w3.org/2000/svg" viewBox="0 0 143 28" fill-rule="evenodd" clip-rule="evenodd">
	<g style="fill: var(--brand-color, #00AEE0);">
		<path
			d="M64.2,15.1c0-4.4,5.4-4.5,5.4,0c0,3.6-3.3,4.1-4.7,2.4C64.4,16.9,64.2,16.1,64.2,15.1z M61.1,14.5v1.1 c0,5,6.4,6.9,9.8,3.9c1.8-1.6,1.8-3,1.8-5.1c0-3.9-5.6-7-9.8-3.7C62,11.4,61.1,13.2,61.1,14.5z" />
		<path
			d="M84,11.7h0.1c1.3,0,2.1,1.1,2.1,2.5h-4.3C81.9,12.8,82.7,11.7,84,11.7z M78.7,15c0,7.1,7.4,7.1,9.8,4 c0.3-0.3,0.5-1,0.7-1.4c-0.7-0.2-2.4-0.5-3.1-0.5c-0.3,0.7-0.7,1.8-2.3,1.5c-1.4-0.3-1.8-1.2-1.8-2.6h7.4c0-2.7-0.5-5.1-3-6.2 C82.8,8.3,78.7,10.3,78.7,15z" />
		<path
			d="M46.2,12.4c0,1,0.1,1.8,0.9,2.6c1.1,1,4.1,1.4,5.4,1.8c1.4,0.4,0.7,1.9-0.9,1.9c-2,0-2.1-0.3-2.8-1.7 c-0.4,0-1.1,0.2-1.5,0.2c-1,0.2-2.3-0.1-0.8,1.8c2.3,3,9.8,2.5,9.8-1.7c0-1,0-1.7-1.1-2.5c-1.7-1.3-6.2-1.5-6.2-2.3 c0-1.1,1.4-1,2.3-1c1.5,0,1.6,1.2,1.8,1.2c1,0,1.7-0.4,2.7-0.4c0-1-0.9-2-1.6-2.4c-1.6-1-5-0.9-6.6,0C47.1,10.4,46.2,11.4,46.2,12.4 z" />
		<path
			d="M92.1,14.9c-0.3,0.5-0.6,0.9-0.9,1.4c-0.4,0.5-0.7,1-1,1.4c-0.4,0.5-1.8,2.4-2,3h3.5l2.3-3.3 c0.7,1.1,1.5,2.2,2.2,3.3h3.7c-0.1-0.5-0.7-1.1-1-1.5c-0.3-0.5-0.7-0.9-1-1.4c-0.3-0.5-1.9-2.6-2-3l1.9-2.6c0.3-0.4,1.7-2.1,1.8-2.6 h-3.6l-2.1,3c-0.1-0.4-0.6-1.1-0.9-1.5c-0.3-0.5-0.7-1-1-1.5h-3.7c0.1,0.4,1.5,2.2,1.9,2.7L92.1,14.9z" />
		<path
			d="M73.5,7.3v2.2h-1.4V12h1.4v5.8c0,1,0.2,1.8,0.7,2.3c0.9,0.9,2.2,0.9,3.5,0.7c0.5-0.1,0.7-0.2,1.1-0.3 c0-0.6,0-1-0.1-1.4c-0.1-0.6,0.1-1-0.3-1c-0.1,0-1.8,0.8-1.8-0.6V12h2V9.6h-2V5.7L74.4,7C74,7.2,73.9,7.2,73.5,7.3z" />
		<rect x="57.3" y="5.4" width="3.1" height="15.3" />
		<path
			d="M28.3,15.4l1.7,0.5c0.6,0.2,1.1,0.3,1.7,0.5l9.3,2.8c0.3,0.1,0.6,0.2,0.9,0.3v-3c-1.2-0.3-5.4-1.6-6.7-2 l-5.9-1.8c-0.3-0.1-0.6-0.2-0.9-0.2V15.4z M28.3,11.9c1.3,0.3,5.4,1.6,6.7,2l6.8,2v-3c-1.5-0.3-4.2-1.3-5.9-1.8 c-2-0.6-5.9-1.9-7.7-2.3V11.9z M41.7,19.9l-6.7-2c0,1.1,0,2.1,0,3.2c0,0.9-0.1,0.9,0.6,0.7l5.6-1.6C41.4,20.1,41.6,20.1,41.7,19.9z M28.4,8.3v0.1c0.6,0.1,1.1,0.3,1.6,0.5l5,1.5v-4c-0.3,0.1-0.5,0.2-0.8,0.2L29.3,8C29,8.1,28.8,8.2,28.4,8.3z" />
	</g>
</svg>