<svg xmlns="http://www.w3.org/2000/svg" width="24" height="24" fill="none" viewBox="0 0 24 24">
  <path fill="currentColor" stroke="currentColor"
    d="M8.255 19.767c-.388.302-.784.31-1.189.025s-.54-.663-.405-1.133l1.442-4.66-3.668-2.594c-.405-.286-.527-.663-.367-1.133.16-.47.485-.706.974-.706h4.529l1.467-4.836c.085-.235.216-.415.393-.542A.963.963 0 0 1 12 4a.97.97 0 0 1 .569.188 1.1 1.1 0 0 1 .392.542l1.468 4.836h4.528c.49 0 .814.235.975.705.16.47.038.848-.367 1.134l-3.669 2.594 1.442 4.66c.135.47 0 .848-.405 1.133-.404.285-.8.277-1.189-.025L12 16.92l-3.745 2.846Z" />
</svg>