<svg xmlns="http://www.w3.org/2000/svg" width="24" height="24" fill="none" viewBox="0 0 24 24">
  <path stroke="currentColor" stroke-linecap="round" stroke-linejoin="round"
    d="M8.571 9.478c-.245.101.066.276.237.277a.485.485 0 0 0 .535-.594c-.153-.432-.879-.606-1.444-.47-.814.198-1.128.87-.819 1.4.407.696 1.625.958 2.583.666 1.192-.364 1.633-1.382 1.1-2.179-.64-.956-2.355-1.306-3.695-.86-1.565.523-2.132 1.885-1.377 2.944.866 1.214 3.075 1.65 4.788 1.05 1.935-.677 2.628-2.38 1.653-3.696-1.088-1.47-3.786-1.993-5.87-1.24-2.3.83-3.117 2.87-1.925 4.442 1.307 1.722 4.49 2.331 6.94 1.429 2.664-.982 3.604-3.357 2.195-5.182-1.523-1.973-5.189-2.668-8-1.616-3.026 1.13-4.088 3.84-2.465 5.915 1.033 1.32 2.997 2.207 5.148 2.355" />
  <path stroke="currentColor" stroke-linecap="round" stroke-linejoin="round"
    d="M8.155 14.119H21.75v4.521H8.12c-3.31 0-5.868-2.206-5.868-5.086V9.598m2.544 8.082v-1.131m1.695 1.808v-2.26m1.696 2.543v-1.13m1.695 1.13v-2.26m1.695 2.26v-1.13m1.696 1.13v-2.26m1.695 2.26v-1.13m3.391 1.13v-1.13m-1.695 1.13v-2.26m3.39 2.26v-2.26m-5.934-2.318V9.145" />
</svg>