<svg xmlns="http://www.w3.org/2000/svg" width="138" height="32" fill="none" viewBox="0 0 138 32">
  <path fill="#4C6E79" d="M33.352 7.785h3.165v15.317h-3.165V7.785Zm4.938 10.07c0-1.102.325-2.18.935-3.095a5.545 5.545 0 0 1 2.491-2.05 5.515 5.515 0 0 1 6.041 1.221 5.59 5.59 0 0 1 1.18 6.075 5.56 5.56 0 0 1-2.054 2.492 5.521 5.521 0 0 1-3.086.922 5.445 5.445 0 0 1-3.918-1.62 5.496 5.496 0 0 1-1.59-3.945Zm7.934 0a2.424 2.424 0 0 0-.436-1.325 2.407 2.407 0 0 0-2.477-.974c-.462.1-.885.336-1.215.676a2.42 2.42 0 0 0-.494 2.626c.184.437.492.811.887 1.074.394.263.856.403 1.33.403a2.332 2.332 0 0 0 1.73-.718 2.355 2.355 0 0 0 .654-1.762h.02Zm15.606-5.247v9.975c0 3.519-2.744 5.013-5.52 5.013a5.254 5.254 0 0 1-2.834-.564 5.285 5.285 0 0 1-2.114-1.98l2.67-1.547a2.387 2.387 0 0 0 2.385 1.325 2.1 2.1 0 0 0 1.708-.565 2.12 2.12 0 0 0 .655-1.682v-.965a3.726 3.726 0 0 1-3.05 1.357A5.264 5.264 0 0 1 52 21.422a5.312 5.312 0 0 1-1.545-3.747c0-1.406.556-2.754 1.545-3.748a5.263 5.263 0 0 1 3.73-1.552 3.71 3.71 0 0 1 3.05 1.357v-1.06l3.05-.064Zm-3.05 5.035a2.552 2.552 0 0 0-1.488-2.425 2.522 2.522 0 0 0-2.794.482 2.546 2.546 0 0 0-.598 2.784 2.524 2.524 0 0 0 2.348 1.597 2.354 2.354 0 0 0 1.805-.654 2.377 2.377 0 0 0 .727-1.784Zm4.832.212c0-1.101.325-2.178.934-3.093a5.545 5.545 0 0 1 2.488-2.05 5.515 5.515 0 0 1 6.038 1.212 5.589 5.589 0 0 1 1.194 6.068 5.56 5.56 0 0 1-2.045 2.495 5.52 5.52 0 0 1-3.08.933 5.453 5.453 0 0 1-3.929-1.615 5.502 5.502 0 0 1-1.6-3.95Zm7.935 0a2.425 2.425 0 0 0-.437-1.326 2.408 2.408 0 0 0-2.48-.972 2.401 2.401 0 0 0-1.215.679 2.42 2.42 0 0 0-.487 2.629c.186.438.496.81.891 1.072s.86.4 1.333.398a2.332 2.332 0 0 0 1.73-.718 2.356 2.356 0 0 0 .654-1.762h.01Zm4.589-8.056a1.893 1.893 0 0 1 1.16-1.743 1.87 1.87 0 0 1 2.047.409 1.89 1.89 0 0 1-1.328 3.22 1.895 1.895 0 0 1-1.322-.558 1.913 1.913 0 0 1-.556-1.328Zm.306 2.809h3.166v10.494h-3.166V12.608Zm16.713 5.247a5.322 5.322 0 0 1-1.364 3.834 5.277 5.277 0 0 1-3.668 1.731 3.909 3.909 0 0 1-3.166-1.283v5.184h-3.165V12.608h3.165v.986a3.914 3.914 0 0 1 3.166-1.272 5.256 5.256 0 0 1 3.657 1.72 5.305 5.305 0 0 1 1.375 3.813Zm-3.165 0a2.509 2.509 0 0 0-.45-1.373 2.491 2.491 0 0 0-2.567-1.008c-.48.104-.917.349-1.259.702a2.506 2.506 0 0 0-.505 2.721 2.5 2.5 0 0 0 .922 1.11c.41.272.89.415 1.38.413a2.374 2.374 0 0 0 1.811-.724 2.398 2.398 0 0 0 .668-1.841Zm12.799 2.099c0 2.416-2.111 3.445-4.347 3.445a4.56 4.56 0 0 1-2.63-.558 4.59 4.59 0 0 1-1.865-1.944l2.722-1.547a1.704 1.704 0 0 0 1.762 1.24c.75 0 1.129-.233 1.129-.657 0-1.156-5.139-.541-5.139-4.177 0-2.29 1.92-3.434 4.094-3.434a4.566 4.566 0 0 1 4.136 2.236L99.929 16a1.545 1.545 0 0 0-1.403-.922c-.549 0-.876.212-.876.583 0 1.208 5.139.413 5.139 4.293Zm11.469-7.346v10.494h-3.166v-.986a3.593 3.593 0 0 1-2.975 1.304c-2.11 0-3.915-1.516-3.915-4.346v-6.466h3.166v5.989a1.742 1.742 0 0 0 1.091 1.792c.234.091.484.131.734.116 1.14 0 1.941-.678 1.941-2.12v-5.777h3.124Zm17.937 4.049v6.445h-3.166v-6.17c0-1.06-.496-1.716-1.498-1.716s-1.635.73-1.635 1.971v5.915h-3.166v-6.17c0-1.06-.496-1.716-1.498-1.716s-1.636.73-1.636 1.971v5.915h-3.165V12.608h3.165v.964a3.219 3.219 0 0 1 2.807-1.25 3.081 3.081 0 0 1 2.733 1.378 3.426 3.426 0 0 1 3.028-1.378c2.469 0 4.031 1.717 4.031 4.335ZM14.497 5.029V.524H.358v30.952h14.139v-4.505a10.895 10.895 0 0 1-7.722-3.213A10.997 10.997 0 0 1 3.576 16c0-2.91 1.15-5.7 3.199-7.758a10.895 10.895 0 0 1 7.722-3.213Zm0 0v21.942c2.896 0 5.674-1.156 7.721-3.213A10.997 10.997 0 0 0 25.417 16c0-2.91-1.15-5.7-3.199-7.758a10.895 10.895 0 0 0-7.721-3.213Zm120.357 7.515a2.327 2.327 0 0 0 2.321-2.332 2.327 2.327 0 0 0-2.321-2.332 2.327 2.327 0 0 0-2.322 2.332 2.327 2.327 0 0 0 2.322 2.332Z" opacity=".6"/>
</svg>
