<svg xmlns="http://www.w3.org/2000/svg" width="126" height="30" fill="none" viewBox="0 0 126 30">
  <path fill="#4C6E79" d="M36.47 8.785h3.165V21.52H36.47V8.785Zm4.42 7.927c0-3.15 1.942-5.03 4.938-5.03 2.997 0 4.938 1.88 4.938 5.03 0 3.15-1.899 5.04-4.938 5.04-3.038 0-4.938-1.837-4.938-5.04Zm6.7 0c0-1.732-.685-2.751-1.762-2.751-1.076 0-1.751 1.05-1.751 2.751 0 1.701.665 2.73 1.751 2.73 1.087 0 1.762-.966 1.762-2.72v-.01Zm4.369 5.428h3.038a1.642 1.642 0 0 0 1.71.945c1.203 0 1.835-.65 1.835-1.596v-1.764h-.063a2.982 2.982 0 0 1-1.175 1.301 3.007 3.007 0 0 1-1.705.422c-2.31 0-3.84-1.754-3.84-4.768 0-3.013 1.455-4.913 3.882-4.913a3.04 3.04 0 0 1 1.747.47c.52.33.927.81 1.165 1.377v-1.753h3.165v9.555c0 2.3-2.036 3.727-5.043 3.727-2.796 0-4.537-1.249-4.716-2.992v-.01Zm6.594-5.439c0-1.533-.707-2.498-1.825-2.498-1.119 0-1.805.955-1.805 2.498 0 1.544.676 2.415 1.805 2.415s1.825-.85 1.825-2.404v-.01Zm4.358 0c0-3.15 1.941-5.029 4.938-5.029 2.996 0 4.948 1.88 4.948 5.03 0 3.15-1.9 5.04-4.948 5.04-3.05 0-4.938-1.828-4.938-5.03v-.01Zm6.7 0c0-1.732-.686-2.75-1.762-2.75-1.077 0-1.7 1.06-1.7 2.771 0 1.712.666 2.73 1.742 2.73s1.72-.976 1.72-2.73v-.02ZM74 9.572a1.6 1.6 0 0 1 .96-1.51 1.622 1.622 0 0 1 1.769.307 1.605 1.605 0 0 1 .39 1.744 1.608 1.608 0 0 1-1.473 1.024 1.548 1.548 0 0 1-1.162-.414A1.53 1.53 0 0 1 74 9.593v-.021Zm0 2.31h3.165v9.639H74v-9.639Zm14.656 4.82c0 3.15-1.404 4.945-3.81 4.945a3.029 3.029 0 0 1-1.759-.43 3.007 3.007 0 0 1-1.195-1.355h-.063v4.746h-3.165V11.861h3.165v1.722h.063a3.017 3.017 0 0 1 1.172-1.39 3.04 3.04 0 0 1 1.761-.468c2.427.042 3.873 1.848 3.873 4.998l-.042-.021Zm-3.166 0c0-1.534-.707-2.51-1.815-2.51s-1.814.987-1.825 2.51c-.01 1.522.718 2.498 1.825 2.498 1.108 0 1.815-.955 1.815-2.477v-.021Zm8.6-5.04c2.627 0 4.22 1.238 4.294 3.223h-2.88c0-.682-.57-1.113-1.446-1.113s-1.267.336-1.267.83c0 .493.349.65 1.056.797l2.026.41c1.93.41 2.753 1.187 2.753 2.646 0 1.995-1.825 3.276-4.516 3.276-2.69 0-4.452-1.281-4.59-3.245h3.05c.095.715.665 1.134 1.593 1.134.929 0 1.35-.304 1.35-.808s-.295-.609-1.054-.767l-1.826-.388c-1.888-.389-2.88-1.386-2.88-2.856.02-1.89 1.72-3.119 4.336-3.119v-.02Zm15.098 9.838h-3.049v-1.796h-.064a2.735 2.735 0 0 1-1.048 1.496 2.761 2.761 0 0 1-1.758.51 3.38 3.38 0 0 1-2.602-1.007 3.33 3.33 0 0 1-.943-2.616v-6.226h3.165v5.502c0 1.145.591 1.753 1.572 1.753a1.617 1.617 0 0 0 1.548-1.14c.067-.218.086-.449.056-.676v-5.439h3.165l-.042 9.639Zm1.53-9.639h3.06v1.858h.063a2.79 2.79 0 0 1 1.028-1.486 2.815 2.815 0 0 1 1.726-.55 2.53 2.53 0 0 1 1.757.526c.499.39.832.951.933 1.574h.064a2.957 2.957 0 0 1 1.126-1.557 2.986 2.986 0 0 1 1.849-.544 3.08 3.08 0 0 1 2.316.936 3.044 3.044 0 0 1 .85 2.34v6.563h-3.166v-5.723c0-1.05-.475-1.533-1.361-1.533a1.39 1.39 0 0 0-1.047.464 1.374 1.374 0 0 0-.335 1.09v5.702h-3.007v-5.764c0-.966-.475-1.492-1.34-1.492a1.419 1.419 0 0 0-1.058.474 1.403 1.403 0 0 0-.345 1.101v5.681h-3.166l.053-9.66ZM27.617 9.362a13.904 13.904 0 0 0-2.11-3.38 14.263 14.263 0 0 0-4.67-3.72 14.331 14.331 0 0 0-16.65 2.83 14.196 14.196 0 0 0-3.164 5.051 14.142 14.142 0 0 0 .883 11.605 14.225 14.225 0 0 0 3.891 4.52 13.828 13.828 0 0 0 3.377 1.92 14.189 14.189 0 0 0 5.35 1.05 14.343 14.343 0 0 0 10.092-4.177 14.203 14.203 0 0 0 4.183-10.05c.003-1.944-.4-3.867-1.182-5.649ZM14.513 3.661c1.647 0 3.275.358 4.769 1.05a4.65 4.65 0 0 1-1.14.325 6.056 6.056 0 0 0-3.409 1.7 6.006 6.006 0 0 0-1.708 3.393 3.144 3.144 0 0 1-.932 1.897 3.17 3.17 0 0 1-1.927.885 6.056 6.056 0 0 0-3.41 1.7 6.006 6.006 0 0 0-1.708 3.393 3.049 3.049 0 0 1-.833 1.827 11.293 11.293 0 0 1 .674-10.92 11.373 11.373 0 0 1 4.136-3.869 11.439 11.439 0 0 1 5.498-1.402l-.01.02Zm-8.726 18.7c.126-.115.253-.22.38-.346a5.744 5.744 0 0 0 1.709-3.392 3.06 3.06 0 0 1 .918-1.91 2.992 2.992 0 0 1 1.91-.904 6.057 6.057 0 0 0 3.409-1.7 6.006 6.006 0 0 0 1.708-3.392 3.06 3.06 0 0 1 .918-2.006 3.035 3.035 0 0 1 1.93-.871 5.794 5.794 0 0 0 3.166-1.502 11.05 11.05 0 0 1 2.49 2.92.904.904 0 0 1-.137.146 3.034 3.034 0 0 1-1.91.924 6.035 6.035 0 0 0-3.412 1.697 5.985 5.985 0 0 0-1.705 3.396 3.144 3.144 0 0 1-.915 1.91 3.172 3.172 0 0 1-1.923.904 6.088 6.088 0 0 0-3.423 1.697 6.038 6.038 0 0 0-1.726 3.395 3.287 3.287 0 0 1-.517 1.439 11.477 11.477 0 0 1-2.87-2.405Zm8.726 4.053a11.492 11.492 0 0 1-3.166-.44 6.078 6.078 0 0 0 .676-2.1 3.144 3.144 0 0 1 .91-1.909 3.172 3.172 0 0 1 1.917-.906 6.057 6.057 0 0 0 3.416-1.697 6.006 6.006 0 0 0 1.712-3.395 3.145 3.145 0 0 1 .91-1.908 3.172 3.172 0 0 1 1.918-.906 6.041 6.041 0 0 0 2.7-1.05 11.308 11.308 0 0 1-1.98 9.814 11.406 11.406 0 0 1-3.988 3.263 11.463 11.463 0 0 1-5.025 1.182v.052Z" opacity=".6"/>
</svg>
