<svg xmlns="http://www.w3.org/2000/svg" width="124" height="26" fill="none" viewBox="0 0 124 26">
  <path fill="#4C6E79" d="M40.199 20.693a2.8 2.8 0 0 1-1.753-.499 1.627 1.627 0 0 1-.66-1.362V9.19a.268.268 0 0 1 .181-.29.276.276 0 0 1 .123-.012h1.763c.2 0 .294.104.294.302v8.892c0 .395.178.593.545.593.156.006.312-.012.462-.052.21 0 .325.062.336.25l.157 1.3a.268.268 0 0 1-.14.29.276.276 0 0 1-.112.032c-.386.126-.79.193-1.196.197Zm9.918-1.113a4.97 4.97 0 0 1-3.149 1.123 4.97 4.97 0 0 1-3.148-1.123 4.14 4.14 0 0 1-1.216-2.927 4.14 4.14 0 0 1 1.216-2.928 4.993 4.993 0 0 1 6.296 0 4.203 4.203 0 0 1 1.186 2.923 4.204 4.204 0 0 1-1.185 2.922v.01Zm-4.64-1.372a2.247 2.247 0 0 0 3.002 0 2.318 2.318 0 0 0 0-3.058 2.247 2.247 0 0 0-3.001 0 2.318 2.318 0 0 0 0 3.058Zm15.533-5.336c.2 0 .294.104.294.302v7.457a3.364 3.364 0 0 1-1.165 2.673 4.434 4.434 0 0 1-3.054 1.04 4.95 4.95 0 0 1-2.844-.78 3.105 3.105 0 0 1-1.375-2.08c0-.208 0-.302.284-.302h1.763a.39.39 0 0 1 .346.24c.114.315.342.578.64.738.363.185.767.278 1.175.27a1.873 1.873 0 0 0 1.354-.478 1.766 1.766 0 0 0 .494-1.3v-.656c-.632.46-1.4.698-2.183.676a4.106 4.106 0 0 1-2.98-1.133 4.14 4.14 0 0 1-1.18-2.891 4.14 4.14 0 0 1 1.18-2.892 4.135 4.135 0 0 1 2.98-1.123 3.548 3.548 0 0 1 2.235.718v-.167a.265.265 0 0 1 .075-.22.272.272 0 0 1 .219-.081l1.742-.01Zm-4.072 5.95a1.862 1.862 0 0 0 1.438-.614 2.533 2.533 0 0 0 0-3.12 1.837 1.837 0 0 0-1.427-.604 1.904 1.904 0 0 0-1.46.614 2.195 2.195 0 0 0-.566 1.56c-.019.568.18 1.121.556 1.55a1.9 1.9 0 0 0 1.46.613Zm13.422.758c-.887.722-2 1.116-3.148 1.116a4.992 4.992 0 0 1-3.148-1.116 4.213 4.213 0 0 1-1.186-2.927c0-1.091.425-2.14 1.186-2.928a5 5 0 0 1 3.148-1.113c1.148 0 2.26.393 3.149 1.113a4.202 4.202 0 0 1 1.185 2.923 4.204 4.204 0 0 1-1.185 2.922v.01Zm-4.648-1.372a2.102 2.102 0 0 0 1.51.572 2.115 2.115 0 0 0 1.502-.572 2.348 2.348 0 0 0 0-3.058 2.102 2.102 0 0 0-1.501-.572 2.115 2.115 0 0 0-1.511.572 2.348 2.348 0 0 0 0 3.058Zm9.623-7.104a1.53 1.53 0 0 1-2.004 0 1.26 1.26 0 0 1-.398-.915 1.248 1.248 0 0 1 .398-.915 1.562 1.562 0 0 1 2.004 0 1.258 1.258 0 0 1 .399.915 1.249 1.249 0 0 1-.399.915Zm.22 9.59a2.842 2.842 0 0 1-1.752-.5 1.646 1.646 0 0 1-.65-1.362v-5.658a.268.268 0 0 1 .181-.289.276.276 0 0 1 .123-.013h1.763c.2 0 .294.104.294.302v4.909c0 .395.178.593.535.593.16.005.318-.012.472-.052.21 0 .326.062.336.25l.157 1.3a.27.27 0 0 1-.251.322c-.39.127-.797.193-1.207.197Zm7.945-8.071a4.15 4.15 0 0 1 3.002 1.123 4.243 4.243 0 0 1 1.155 2.907 4.243 4.243 0 0 1-1.155 2.907 4.087 4.087 0 0 1-3.002 1.133 3.632 3.632 0 0 1-2.193-.676v3.755c0 .197-.105.29-.304.29H79.24a.253.253 0 0 1-.287-.17.248.248 0 0 1-.007-.12v-8.528a.535.535 0 0 0-.154-.461.547.547 0 0 0-.466-.153h-.346c-.23 0-.346-.083-.346-.25v-1.227a.33.33 0 0 1 .241-.343c.363-.13.747-.194 1.134-.187a1.947 1.947 0 0 1 1.9 1.04 3.54 3.54 0 0 1 2.591-1.04Zm-1.637 5.585a2.005 2.005 0 0 0 1.448.613 2.02 2.02 0 0 0 1.449-.613 2.234 2.234 0 0 0 .577-1.592 2.204 2.204 0 0 0-.577-1.59 2.006 2.006 0 0 0-1.449-.614 2.021 2.021 0 0 0-1.448.613 2.286 2.286 0 0 0-.556 1.591 2.32 2.32 0 0 0 .556 1.592Zm10.747 2.485a5.096 5.096 0 0 1-2.698-.645 2.524 2.524 0 0 1-1.217-1.84c0-.208.074-.312.304-.312h1.543a.401.401 0 0 1 .346.228c.22.562.798.843 1.722.843.322.014.643-.05.934-.187a.607.607 0 0 0 .356-.51c0-.27-.167-.458-.503-.582a5.72 5.72 0 0 0-1.228-.26 11.77 11.77 0 0 1-1.47-.26 2.42 2.42 0 0 1-1.227-.697 2.22 2.22 0 0 1-.482-1.71 2.212 2.212 0 0 1 .933-1.514 4.353 4.353 0 0 1 2.54-.666 4.672 4.672 0 0 1 2.477.614 2.307 2.307 0 0 1 1.154 1.633c0 .208-.095.312-.284.312h-1.553a.328.328 0 0 1-.315-.188 1.044 1.044 0 0 0-.545-.55 1.86 1.86 0 0 0-.903-.209 1.84 1.84 0 0 0-.892.177.524.524 0 0 0-.336.478.662.662 0 0 0 .504.614c.403.15.822.255 1.249.312.49.064.978.154 1.459.27.47.106.898.349 1.228.697a1.963 1.963 0 0 1 .514 1.425c.009.36-.076.715-.247 1.032a2.087 2.087 0 0 1-.73.778 4.618 4.618 0 0 1-2.633.717Zm14.703-.52a.277.277 0 0 1-.052.212.285.285 0 0 1-.19.11 4.043 4.043 0 0 1-1.185.198 2.335 2.335 0 0 1-1.17-.18 2.318 2.318 0 0 1-.929-.725 3.82 3.82 0 0 1-2.677.905 3.278 3.278 0 0 1-2.455-.946 3.406 3.406 0 0 1-.934-2.507v-4.066c0-.198.094-.302.293-.302h1.764c.199 0 .293.104.293.302v3.754c-.019.468.143.926.452 1.28a1.574 1.574 0 0 0 1.207.488 1.758 1.758 0 0 0 1.259-.457 1.652 1.652 0 0 0 .472-1.238v-3.827c0-.198.095-.302.294-.302h1.784c.2 0 .294.104.294.302v4.898c0 .406.178.604.525.604a1.68 1.68 0 0 0 .483-.052.272.272 0 0 1 .346.25l.126 1.3Zm16.676 0c.009.038.01.076.002.114a.263.263 0 0 1-.244.209c-.39.125-.796.192-1.206.197a2.822 2.822 0 0 1-1.753-.499 1.632 1.632 0 0 1-.524-.594 1.605 1.605 0 0 1-.179-.768v-2.444a1.832 1.832 0 0 0-.441-1.28 1.49 1.49 0 0 0-1.175-.488 1.322 1.322 0 0 0-1.05.457 1.844 1.844 0 0 0-.399 1.227v3.838c0 .198-.094.302-.294.302h-1.773a.273.273 0 0 1-.304-.302v-3.754a1.917 1.917 0 0 0-.41-1.28 1.365 1.365 0 0 0-1.049-.488 1.537 1.537 0 0 0-1.155.457 1.71 1.71 0 0 0-.43 1.227v3.838a.263.263 0 0 1-.013.121.272.272 0 0 1-.291.18h-1.711c-.199 0-.294-.103-.294-.301v-4.898a.533.533 0 0 0-.368-.592.552.552 0 0 0-.251-.022h-.346c-.231 0-.347-.083-.347-.25v-1.227a.333.333 0 0 1 .242-.343 3.19 3.19 0 0 1 1.133-.187 1.99 1.99 0 0 1 1.074.211c.33.17.606.428.794.746a3.56 3.56 0 0 1 2.666-.957 3.04 3.04 0 0 1 1.377.256c.432.192.812.482 1.11.846a3.49 3.49 0 0 1 2.75-1.102 3.318 3.318 0 0 1 2.487.946 3.368 3.368 0 0 1 .934 2.506v2.008c0 .395.178.593.514.593.163.007.326-.01.483-.052.217 0 .332.083.346.25l.095 1.3ZM.928 11.52a14.227 14.227 0 0 1 5.094-7.78A14.451 14.451 0 0 1 14.87.72c3.207 0 6.322 1.064 8.848 3.02a14.227 14.227 0 0 1 5.094 7.78h-1.26a10.235 10.235 0 0 0-5.95 1.8c-.1.072-.205.138-.314.197h-.147a3.023 3.023 0 0 1-.315-.197 10.741 10.741 0 0 0-5.956-1.8c-2.122 0-4.195.626-5.956 1.8-.1.072-.206.138-.315.197h-.146a3.027 3.027 0 0 1-.315-.197 10.234 10.234 0 0 0-5.95-1.8H.927Zm24.358 6.521a3.557 3.557 0 0 1 2.267-.738h1.69v-3.339h-1.69a6.737 6.737 0 0 0-4.02 1.27 3.844 3.844 0 0 1-4.533 0 7.181 7.181 0 0 0-4.078-1.269c-1.457 0-2.88.443-4.077 1.268a3.843 3.843 0 0 1-4.533 0 6.737 6.737 0 0 0-4.072-1.269H.498v3.339h1.69a3.56 3.56 0 0 1 2.266.738 7.16 7.16 0 0 0 4.072 1.269 7.16 7.16 0 0 0 4.072-1.269 3.579 3.579 0 0 1 2.267-.738 3.537 3.537 0 0 1 2.267.738 7.182 7.182 0 0 0 4.077 1.268c1.458 0 2.88-.442 4.077-1.268Zm0 5.97a3.557 3.557 0 0 1 2.267-.738h1.69v-3.339h-1.69a6.737 6.737 0 0 0-4.02 1.269 3.844 3.844 0 0 1-4.533 0 7.181 7.181 0 0 0-4.078-1.268c-1.457 0-2.88.443-4.077 1.268a3.843 3.843 0 0 1-4.533 0 6.737 6.737 0 0 0-4.072-1.269H.498v3.338h1.69a3.56 3.56 0 0 1 2.266.739 7.16 7.16 0 0 0 4.072 1.269 7.16 7.16 0 0 0 4.072-1.27 3.579 3.579 0 0 1 2.267-.738 3.537 3.537 0 0 1 2.267.739 7.182 7.182 0 0 0 4.077 1.268c1.458 0 2.88-.443 4.077-1.268Z" opacity=".6"/>
</svg>
