<svg xmlns="http://www.w3.org/2000/svg" width="134" height="32" fill="none" viewBox="0 0 134 32">
  <path fill="#4C6E79" d="M37.97 9.973h3.387v13.65H37.97V9.973Zm4.738 8.516c0-3.381 2.11-5.408 5.275-5.408 3.166 0 5.276 2.027 5.276 5.408 0 3.38-2.037 5.428-5.276 5.428s-5.275-1.974-5.275-5.428Zm7.196 0c0-1.859-.729-2.95-1.89-2.95-1.16 0-1.877 1.05-1.877 2.95 0 1.9.717 2.94 1.878 2.94 1.16 0 1.91-1.04 1.91-2.93l-.021-.01Zm4.705 5.838h3.271a1.758 1.758 0 0 0 1.836 1.05c1.298 0 1.973-.693 1.973-1.722v-1.89h.01a3.23 3.23 0 0 1-1.296 1.407 3.252 3.252 0 0 1-1.869.43c-2.48 0-4.125-1.88-4.125-5.113 0-3.234 1.572-5.25 4.22-5.25a3.252 3.252 0 0 1 1.9.491c.567.356 1.01.877 1.266 1.493H61.7v-1.9h3.355V23.55c0 2.467-2.195 4.01-5.423 4.01-2.933-.01-4.812-1.343-5.002-3.223l-.02-.01Zm7.09-5.838c0-1.649-.759-2.688-1.962-2.688-1.203 0-1.941 1.05-1.941 2.688 0 1.638.728 2.604 1.941 2.604 1.214 0 1.963-.893 1.963-2.604Zm4.696 0c0-3.381 2.11-5.408 5.276-5.408 3.165 0 5.275 2.027 5.275 5.408 0 3.38-2.047 5.428-5.275 5.428-3.23 0-5.255-1.974-5.255-5.428h-.021Zm7.196 0c0-1.859-.739-2.95-1.889-2.95s-1.878 1.05-1.878 2.95c0 1.9.718 2.94 1.878 2.94s1.91-1.04 1.91-2.93l-.021-.01Zm4.727-7.655a1.716 1.716 0 0 1 1.015-1.642 1.738 1.738 0 0 1 1.91.325 1.72 1.72 0 0 1-1.195 2.966 1.673 1.673 0 0 1-1.572-1 1.652 1.652 0 0 1-.137-.638l-.021-.01Zm0 2.478h3.429v10.353H78.37l-.053-10.353ZM94.08 18.49c0 3.37-1.52 5.323-4.104 5.323a3.252 3.252 0 0 1-1.886-.465 3.228 3.228 0 0 1-1.28-1.456h-.063v5.103H83.36v-13.65h3.366v1.848h.063a3.25 3.25 0 0 1 1.266-1.495 3.272 3.272 0 0 1 1.9-.5c2.659-.021 4.188 1.921 4.188 5.302l-.063-.01Zm-3.45 0c0-1.638-.77-2.699-1.963-2.699-1.192 0-1.94 1.05-1.952 2.699-.01 1.648.76 2.688 1.953 2.688 1.192 0 2.025-.977 2.025-2.678l-.063-.01Zm9.232-5.418c2.838 0 4.601 1.333 4.622 3.475h-3.092c0-.745-.622-1.207-1.55-1.207-.93 0-1.373.357-1.373.892 0 .536.39.704 1.172.861l2.173.441c2.11.441 2.955 1.281 2.955 2.846 0 2.1-1.952 3.528-4.854 3.528s-4.79-1.386-4.927-3.497h3.281c.095.767.707 1.218 1.699 1.218.992 0 1.456-.315 1.456-.871 0-.557-.317-.651-1.129-.82l-1.963-.409c-2.036-.43-3.102-1.49-3.102-3.076.064-2.058 1.836-3.37 4.696-3.37l-.064-.011Zm16.249 10.584h-3.281v-1.943h-.064a2.955 2.955 0 0 1-1.134 1.606 2.984 2.984 0 0 1-1.894.547 3.635 3.635 0 0 1-2.74-1.117 3.595 3.595 0 0 1-.984-2.778v-6.647h3.386v5.922c0 1.218.644 1.88 1.699 1.88a1.734 1.734 0 0 0 1.65-1.246c.068-.237.085-.485.049-.729v-5.827h3.376l-.063 10.332Zm1.635-10.343h3.292v1.995h.074c.182-.639.572-1.2 1.108-1.595a3.03 3.03 0 0 1 1.857-.589 2.709 2.709 0 0 1 1.872.54c.535.407.898.996 1.019 1.655h.148a3.15 3.15 0 0 1 1.208-1.633 3.174 3.174 0 0 1 1.957-.562 3.307 3.307 0 0 1 2.495 1 3.265 3.265 0 0 1 .913 2.518v7.024h-3.408v-6.163c0-1.05-.496-1.638-1.456-1.638a1.483 1.483 0 0 0-1.129.494 1.461 1.461 0 0 0-.359 1.175v6.132h-3.228V17.47c0-1.05-.517-1.606-1.446-1.606a1.517 1.517 0 0 0-1.14.504 1.49 1.49 0 0 0-.369 1.186v6.111h-3.386l-.022-10.353ZM31.27 10.866c0-2.09-.634-4.131-1.82-5.856a10.416 10.416 0 0 0-4.823-3.812A10.472 10.472 0 0 0 18.484.76c-2.046.474-3.9 1.55-5.32 3.09H-.003v27.66h27.802V18.583a10.367 10.367 0 0 0 2.562-3.49c.598-1.33.908-2.77.91-4.227Zm-5.35 0a5.044 5.044 0 0 1-.851 2.814 5.081 5.081 0 0 1-2.28 1.869 5.108 5.108 0 0 1-5.546-1.09 5.037 5.037 0 0 1-1.107-5.517 5.066 5.066 0 0 1 1.873-2.273 5.103 5.103 0 0 1 6.418.625 5.049 5.049 0 0 1 1.494 3.572Zm-3.47 15.32H5.345V9.175h5.212a9.975 9.975 0 0 0-.158 1.69 10.37 10.37 0 0 0 3.06 7.34 10.472 10.472 0 0 0 7.375 3.044 10.27 10.27 0 0 0 1.614-.136v5.071Z" opacity=".6"/>
</svg>
