<svg xmlns="http://www.w3.org/2000/svg" width="138" height="32" fill="none" viewBox="0 0 138 32">
  <g opacity=".6">
    <path fill="#4C6E79" d="M33.693 7.785h3.165v15.317h-3.165V7.785Zm4.937 10.07c0-1.102.326-2.18.936-3.095a5.545 5.545 0 0 1 2.491-2.05 5.515 5.515 0 0 1 6.041 1.221 5.59 5.59 0 0 1 1.18 6.075 5.56 5.56 0 0 1-2.054 2.492 5.521 5.521 0 0 1-3.086.922 5.445 5.445 0 0 1-3.918-1.62 5.494 5.494 0 0 1-1.59-3.945Zm7.935 0a2.424 2.424 0 0 0-.436-1.325 2.407 2.407 0 0 0-2.477-.974 2.42 2.42 0 0 0-1.709 3.301 2.413 2.413 0 0 0 2.217 1.478 2.332 2.332 0 0 0 1.73-.718 2.356 2.356 0 0 0 .654-1.762h.021Zm15.605-5.247v9.975c0 3.519-2.743 5.013-5.518 5.013a5.255 5.255 0 0 1-2.835-.564 5.286 5.286 0 0 1-2.114-1.98l2.67-1.547a2.387 2.387 0 0 0 2.384 1.325 2.1 2.1 0 0 0 1.709-.565 2.122 2.122 0 0 0 .655-1.682v-.965a3.726 3.726 0 0 1-3.05 1.357 5.266 5.266 0 0 1-3.73-1.553 5.313 5.313 0 0 1-1.545-3.747c0-1.406.556-2.754 1.545-3.748a5.264 5.264 0 0 1 3.73-1.552 3.71 3.71 0 0 1 3.05 1.357v-1.06l3.05-.064Zm-3.05 5.035a2.553 2.553 0 0 0-.374-1.441 2.522 2.522 0 0 0-3.908-.502 2.548 2.548 0 0 0-.597 2.784 2.524 2.524 0 0 0 2.348 1.597 2.353 2.353 0 0 0 1.805-.654 2.376 2.376 0 0 0 .727-1.784Zm4.833.212c0-1.101.325-2.178.935-3.093a5.545 5.545 0 0 1 2.487-2.05 5.515 5.515 0 0 1 6.038 1.212 5.588 5.588 0 0 1 1.194 6.068 5.56 5.56 0 0 1-2.045 2.495 5.52 5.52 0 0 1-3.08.933 5.454 5.454 0 0 1-3.929-1.615 5.503 5.503 0 0 1-1.6-3.95Zm7.935 0a2.424 2.424 0 0 0-.437-1.326 2.407 2.407 0 0 0-2.48-.972 2.402 2.402 0 0 0-1.215.679 2.421 2.421 0 0 0 1.737 4.1 2.332 2.332 0 0 0 1.73-.719 2.356 2.356 0 0 0 .654-1.762h.01Zm4.59-8.056a1.893 1.893 0 0 1 1.159-1.743 1.87 1.87 0 0 1 2.047.409 1.89 1.89 0 0 1 .407 2.056 1.872 1.872 0 0 1-1.735 1.165 1.894 1.894 0 0 1-1.322-.559 1.913 1.913 0 0 1-.556-1.328Zm.306 2.809h3.165v10.494h-3.165V12.608Zm16.712 5.247a5.322 5.322 0 0 1-1.364 3.834 5.277 5.277 0 0 1-3.668 1.731 3.909 3.909 0 0 1-3.166-1.283v5.184h-3.165V12.608h3.165v.986a3.915 3.915 0 0 1 3.166-1.272 5.256 5.256 0 0 1 3.657 1.72 5.305 5.305 0 0 1 1.376 3.813Zm-3.165 0a2.509 2.509 0 0 0-.45-1.373 2.48 2.48 0 0 0-3.825-.306 2.506 2.506 0 0 0-.506 2.721 2.5 2.5 0 0 0 .922 1.11c.41.272.89.415 1.38.413a2.374 2.374 0 0 0 1.811-.724 2.4 2.4 0 0 0 .668-1.841Zm12.799 2.099c0 2.416-2.111 3.445-4.347 3.445a4.561 4.561 0 0 1-2.63-.558 4.59 4.59 0 0 1-1.865-1.944l2.722-1.547a1.704 1.704 0 0 0 1.762 1.24c.75 0 1.129-.233 1.129-.657 0-1.156-5.138-.541-5.138-4.177 0-2.29 1.92-3.434 4.093-3.434a4.566 4.566 0 0 1 4.136 2.236L100.27 16a1.544 1.544 0 0 0-1.403-.922c-.549 0-.876.212-.876.583 0 1.208 5.139.413 5.139 4.293Zm11.469-7.346v10.494h-3.166v-.986a3.593 3.593 0 0 1-2.975 1.304c-2.11 0-3.915-1.516-3.915-4.346v-6.466h3.166v5.989a1.742 1.742 0 0 0 1.092 1.792c.233.091.483.131.733.116 1.14 0 1.942-.678 1.942-2.12v-5.777h3.123Zm17.937 4.049v6.445h-3.166v-6.17c0-1.06-.496-1.716-1.498-1.716s-1.635.73-1.635 1.971v5.915h-3.166v-6.17c0-1.06-.496-1.716-1.498-1.716s-1.635.73-1.635 1.971v5.915h-3.166V12.608h3.166v.964a3.224 3.224 0 0 1 2.806-1.25 3.081 3.081 0 0 1 2.733 1.378 3.428 3.428 0 0 1 3.028-1.378c2.469 0 4.031 1.717 4.031 4.335ZM14.838 5.029V.524H.699v30.952h14.139v-4.505a10.895 10.895 0 0 1-7.722-3.213A10.997 10.997 0 0 1 3.917 16c0-2.91 1.15-5.7 3.199-7.758a10.895 10.895 0 0 1 7.722-3.213Z"/>
    <path fill="#4C6E79" d="M14.838 5.029v21.942c2.896 0 5.674-1.156 7.722-3.213A10.997 10.997 0 0 0 25.758 16c0-2.91-1.15-5.7-3.198-7.758a10.895 10.895 0 0 0-7.722-3.213Zm120.357 7.515a2.326 2.326 0 0 0 2.321-2.332 2.326 2.326 0 0 0-2.321-2.332 2.327 2.327 0 0 0-2.322 2.332 2.327 2.327 0 0 0 2.322 2.332Z"/>
  </g>
</svg>
